<?xml version="1.0" encoding="UTF-8"?>
<svg version="1.1" xmlns="http://www.w3.org/2000/svg" width="600" height="600">
<path d="M0 0 C3.85975386 1.28658462 4.30028026 2.66804379 6.37109375 6.1171875 C7.02150635 7.1892041 7.67191895 8.2612207 8.34204102 9.36572266 C9.04053005 10.53548016 9.73901631 11.70523931 10.4375 12.875 C11.52596174 14.67533605 12.61755418 16.47375059 13.70915222 18.27218628 C14.44066089 19.47804414 15.1711371 20.68452891 15.90058899 21.89163208 C18.89342386 26.8424626 21.95724099 31.74415881 25.0625 36.625 C29.50603332 43.62920071 33.91879374 50.65192617 38.3125 57.6875 C38.94293213 58.69699707 39.57336426 59.70649414 40.22290039 60.74658203 C41.5076015 62.80412772 42.79218745 64.86174532 44.07666016 66.91943359 C47.21589223 71.94746487 50.35807151 76.97365341 53.5 82 C54.75001464 83.99999085 56.00001462 85.99999086 57.25 88 C57.86875 88.99 58.4875 89.98 59.125 91 C64.75 100 64.75 100 66.62646484 103.00244141 C67.8714649 104.9943766 69.11658133 106.98623906 70.36181641 108.97802734 C73.56429332 114.10081642 76.76449089 119.22500821 79.9609375 124.3515625 C81.26555074 126.44275466 82.57023706 128.53390124 83.875 130.625 C84.49834229 131.6248291 85.12168457 132.6246582 85.76391602 133.65478516 C89.94768867 140.35307286 94.20565022 146.99639868 98.55859375 153.5859375 C100 156 100 156 100 158 C104.74724435 153.57166842 108.54016613 148.55261746 112.4375 143.375 C113.49420898 141.97991211 113.49420898 141.97991211 114.57226562 140.55664062 C119.67187851 133.80755726 124.69827199 127.00628423 129.69775391 120.18286133 C135.47544982 112.31335413 141.40253084 104.56005804 147.33203125 96.8046875 C151.59265849 91.23132646 155.80758853 85.62481873 160 80 C164.17682554 81.39227518 165.25254356 84.31741448 167.375 87.9375 C171.0500482 94.00780689 174.9287506 99.84040029 179.125 105.5625 C198.92026484 132.60543867 217.9234014 160.34560563 233.84570312 189.87207031 C234.96892806 191.94271932 236.11476662 193.99929832 237.265625 196.0546875 C257.13088566 231.95414418 269.49411704 272.32649244 269.3125 313.4375 C269.31034485 314.31739594 269.3081897 315.19729187 269.30596924 316.10385132 C269.2505055 330.25335736 268.6259679 344.06325929 266 358 C265.80132324 359.06395996 265.60264648 360.12791992 265.39794922 361.22412109 C255.4319594 412.92036044 231.61581916 460.12949829 195 498 C194.36868164 498.65323242 193.73736328 499.30646484 193.08691406 499.97949219 C185.12172352 508.17611684 177.12748829 516.08769629 168 523 C167.33693848 523.51240234 166.67387695 524.02480469 165.99072266 524.55273438 C155.18293142 532.88725442 144.13074137 540.25638927 132.15917969 546.81103516 C130.20825168 547.885325 128.27821072 548.98843974 126.3515625 550.10546875 C89.51347826 570.8424128 46.47762934 580.40518615 4.47314453 580.31567383 C1.3996997 580.3125253 -1.67276768 580.33603225 -4.74609375 580.36132812 C-22.98450836 580.42034505 -40.98732476 578.64490305 -58.75 574.375 C-59.81524902 574.12194092 -60.88049805 573.86888184 -61.97802734 573.6081543 C-108.49297861 562.15439968 -150.57435505 539.28509349 -185 506 C-185.65323242 505.36868164 -186.30646484 504.73736328 -186.97949219 504.08691406 C-195.1734637 496.12430175 -203.09293758 488.12900345 -210 479 C-210.40992188 478.46648926 -210.81984375 477.93297852 -211.2421875 477.38330078 C-236.68456313 444.17836602 -253.64471449 407.11295032 -262.3125 366.1875 C-262.55524658 365.04434326 -262.79799316 363.90118652 -263.0480957 362.72338867 C-266.27512509 346.684128 -267.41564354 330.77207967 -267.375 314.4375 C-267.37412384 313.56737274 -267.37324768 312.69724548 -267.37234497 311.80075073 C-267.12180696 235.95015208 -223.56056572 170.87823767 -181.21191406 111.24609375 C-175.01376984 102.51817925 -169.03435149 93.65763219 -163.13818359 84.72314453 C-162.09639318 83.14593373 -161.04850387 81.5727558 -160 80 C-156.77582501 81.37196174 -155.1326783 82.76919734 -153.109375 85.61328125 C-152.573125 86.35578125 -152.036875 87.09828125 -151.484375 87.86328125 C-150.91203125 88.67152344 -150.3396875 89.47976562 -149.75 90.3125 C-148.49646672 92.04938722 -147.2411934 93.78501968 -145.984375 95.51953125 C-145.33146484 96.42268066 -144.67855469 97.32583008 -144.00585938 98.25634766 C-140.73972148 102.72383276 -137.36929405 107.11010426 -134 111.5 C-128.85231029 118.2247276 -123.76209244 124.98606915 -118.75 131.8125 C-117.90066895 132.96854736 -117.90066895 132.96854736 -117.03417969 134.14794922 C-115.91466522 135.67200227 -114.79519843 137.19609034 -113.67578125 138.72021484 C-110.87633659 142.52866681 -108.06957668 146.33142669 -105.25 150.125 C-104.49734863 151.14750854 -104.49734863 151.14750854 -103.72949219 152.19067383 C-101.32574129 155.6070715 -101.32574129 155.6070715 -98 158 C-97.77699219 157.34644531 -97.55398437 156.69289062 -97.32421875 156.01953125 C-95.54771925 151.96869316 -93.20608513 148.39893214 -90.8125 144.6875 C-89.72072773 142.97696217 -88.62961253 141.26600483 -87.5390625 139.5546875 C-86.6732959 138.19875488 -86.6732959 138.19875488 -85.79003906 136.81542969 C-82.72763004 131.99877655 -79.70857993 127.15514242 -76.6875 122.3125 C-75.41017482 120.26691549 -74.1328309 118.22134268 -72.85546875 116.17578125 C-72.21786621 115.15436035 -71.58026367 114.13293945 -70.92333984 113.08056641 C-67.78410777 108.05253513 -64.64192849 103.02634659 -61.5 98 C-60.24998536 96.00000915 -58.99998538 94.00000914 -57.75 92 C-50.25 80 -42.75 68 -35.25 56 C-34.3211499 54.5137915 -34.3211499 54.5137915 -33.37353516 52.99755859 C-32.1285351 51.0056234 -30.88341867 49.01376094 -29.63818359 47.02197266 C-26.43570668 41.89918358 -23.23550911 36.77499179 -20.0390625 31.6484375 C-13.42977869 21.0526405 -6.80344942 10.47251834 0 0 Z M-1.26953125 262.22265625 C-1.77871094 262.82980469 -2.28789062 263.43695313 -2.8125 264.0625 C-3.43253906 264.79339844 -4.05257812 265.52429688 -4.69140625 266.27734375 C-5.45324219 267.17582031 -6.21507812 268.07429688 -7 269 C-7.98635522 270.12798918 -8.9747847 271.2541666 -9.96484375 272.37890625 C-16.71460761 280.06125703 -23.22141319 287.8746321 -29.44677734 295.98730469 C-31.16507345 298.21390531 -32.90482603 300.42290449 -34.64453125 302.6328125 C-64.58417332 340.9492913 -104.12170351 396.31565177 -98.4375 447.9375 C-94.8494712 469.27431127 -81.6793599 486.74757755 -65 500 C-38.68083827 518.48446282 -6.27572146 523.23142785 25 517.8125 C49.69311949 513.04700016 73.15221738 499.9583784 87.66308594 479.0012207 C100.30174704 459.74524872 102.93162633 440.04180555 98.53466797 417.62792969 C94.53821631 399.08039368 86.88035144 381.685572 78 365 C77.58347168 364.21093262 77.16694336 363.42186523 76.73779297 362.60888672 C70.7428928 351.30077339 64.33841165 340.48305993 57 330 C56.5241748 329.31309082 56.04834961 328.62618164 55.55810547 327.91845703 C41.04970596 306.97552801 25.18653751 287.00922973 7.97265625 268.21875 C6 266 6 266 3.87109375 263.21875 C2.94490234 262.12046875 2.94490234 262.12046875 2 261 C-0.05366599 260.76877191 -0.05366599 260.76877191 -1.26953125 262.22265625 Z " fill="#000000" transform="translate(299,20)"/>
</svg>
