<?xml version="1.0" encoding="UTF-8"?>
<svg version="1.1" xmlns="http://www.w3.org/2000/svg" width="397" height="467">
<path d="M0 0 C5.37147111 3.52390135 10.05386368 7.75404685 14.625 12.25 C15.32625 12.93835938 16.0275 13.62671875 16.75 14.3359375 C22.65816666 20.54412825 26.69451924 27.703784 30.625 35.25 C30.955 35.86810547 31.285 36.48621094 31.625 37.12304688 C47.97276164 68.06246295 52.32910797 103.97155809 56.625 138.25 C59.50768044 138.25 60.6507963 136.86682304 62.9140625 135.109375 C63.77386719 134.45066406 64.63367188 133.79195312 65.51953125 133.11328125 C67.31762414 131.72162424 69.11453104 130.3284333 70.91015625 128.93359375 C78.88532416 122.83075352 86.39600436 117.55935215 96.8125 118.43359375 C111.21368582 120.85879345 122.95321938 134.81446846 131.06713867 146.12915039 C133.34513136 149.44691099 135.50348214 152.83060253 137.625 156.25 C138.20991211 157.17256592 138.20991211 157.17256592 138.80664062 158.11376953 C167.35076155 203.61659944 173.56266609 261.98315079 162.71484375 313.6875 C161.80749111 317.58401005 160.77716133 321.42057247 159.625 325.25 C159.38410645 326.05743652 159.14321289 326.86487305 158.89501953 327.69677734 C155.20785223 339.84659195 150.73658836 351.12590194 144.625 362.25 C144.30418457 362.8486084 143.98336914 363.4472168 143.65283203 364.06396484 C130.06029074 389.39206743 110.68042587 411.17804037 87.625 428.25 C86.38363281 429.18392578 86.38363281 429.18392578 85.1171875 430.13671875 C66.68580818 443.53851829 44.27182027 456.86925691 21.01367188 456.83105469 C19.81509552 456.84448914 18.61651917 456.85792358 17.38162231 456.87176514 C14.12886577 456.90299835 10.8767262 456.91646039 7.62383842 456.91902828 C5.57928609 456.92189528 3.53483706 456.93047923 1.49031067 456.94101715 C-5.67807682 456.97790694 -12.84616918 456.9943737 -20.01464844 456.99121094 C-26.63836242 456.98881564 -33.26076519 457.03089589 -39.88414812 457.09418559 C-45.61719991 457.14696428 -51.34982975 457.16792671 -57.08312178 457.1653893 C-60.48671757 457.16438247 -63.88914766 457.17503382 -67.29249573 457.2181015 C-84.08875171 457.39350521 -97.31974743 455.90819567 -112.375 448.25 C-114.22368611 447.38873835 -116.07255327 446.52786474 -117.921875 445.66796875 C-119.32989616 444.93778321 -120.73135222 444.19475846 -122.125 443.4375 C-122.89537598 443.0242749 -123.66575195 442.6110498 -124.45947266 442.18530273 C-149.4876961 428.46786159 -171.77703521 408.43212983 -188.375 385.25 C-188.85243652 384.59515625 -189.32987305 383.9403125 -189.82177734 383.265625 C-209.11730019 356.57672502 -219.13944443 326.50886164 -224.375 294.25 C-224.57198486 293.11473877 -224.57198486 293.11473877 -224.77294922 291.95654297 C-235.74835215 228.18221708 -208.51316946 155.11175894 -172.38256836 103.45751953 C-165.32021786 93.51730576 -157.67661834 84.17984891 -149.375 75.25 C-148.73175781 74.55261719 -148.08851563 73.85523437 -147.42578125 73.13671875 C-146.83152344 72.51410156 -146.23726563 71.89148438 -145.625 71.25 C-145.11453125 70.71375 -144.6040625 70.1775 -144.078125 69.625 C-138.16792606 64.85346324 -130.53762374 65.53530838 -123.375 66.25 C-110.88552557 69.4255908 -102.57668348 82.69760115 -95.16625977 92.44116211 C-92.45242526 95.99335828 -89.60323835 99.15482524 -86.375 102.25 C-86.09914062 101.00734375 -85.82328125 99.7646875 -85.5390625 98.484375 C-84.74509027 94.9108047 -83.94768896 91.33801802 -83.1484375 87.765625 C-82.92542969 86.7662793 -82.70242187 85.76693359 -82.47265625 84.73730469 C-81.97396192 82.50328887 -81.47387606 80.26958338 -80.97265625 78.03613281 C-79.57444732 71.77235559 -78.21092198 65.5047409 -76.91641235 59.21881104 C-76.24288052 55.95062065 -75.5595193 52.68450811 -74.87628174 49.41833496 C-74.54736688 47.83155004 -74.22326736 46.24375775 -73.90447998 44.65490723 C-70.57578705 28.08054278 -65.66786579 7.85525258 -51.375 -2.75 C-35.63180247 -12.5182202 -15.39484521 -8.58466446 0 0 Z M-24.375 41.25 C-26.8346049 51.21849484 -29.17209015 61.20800987 -31.3125 71.25 C-31.48193115 72.04320145 -31.6513623 72.83640289 -31.82592773 73.65364075 C-32.67305649 77.62515591 -33.51318077 81.59798782 -34.34375 85.57299805 C-40.52499223 114.87576755 -40.52499223 114.87576755 -46.25 126.3125 C-46.59023193 127.01093018 -46.93046387 127.70936035 -47.28100586 128.42895508 C-52.82260591 139.47225051 -60.63136047 148.70970814 -72.375 153.25 C-83.36158587 156.64234932 -92.6997692 155.35490977 -103.375 151.25 C-110.9671425 147.1143441 -116.63163356 139.89809728 -122.359375 133.5546875 C-124.94615143 130.69205432 -127.6216217 127.95238981 -130.375 125.25 C-156.93998492 163.9982133 -176.68595158 209.75468223 -179.375 257.25 C-179.41882813 257.93690918 -179.46265625 258.62381836 -179.5078125 259.33154297 C-181.83258388 301.03212962 -165.63675495 340.80323724 -138.3828125 371.65234375 C-137.34063173 372.81177794 -136.29638426 373.96935802 -135.25 375.125 C-134.77143555 375.6605249 -134.29287109 376.1960498 -133.79980469 376.74780273 C-130.32637332 380.52252527 -126.62603711 383.3771046 -122.375 386.25 C-120.72692892 382.95385785 -122.61491819 379.78013261 -123.6875 376.4375 C-133.62276686 343.78475162 -127.09965598 308.84629114 -111.5144043 278.85327148 C-105.39948397 267.56748351 -98.68133739 255.23280419 -89.375 246.25 C-88.385 246.25 -87.395 246.25 -86.375 246.25 C-84.4296875 248.3046875 -84.4296875 248.3046875 -82.25 251.125 C-79.0916102 255.11427339 -75.89050004 259.01757757 -72.5 262.8125 C-71.42105469 264.02099609 -71.42105469 264.02099609 -70.3203125 265.25390625 C-68.34210994 267.42267807 -68.34210994 267.42267807 -65.375 269.25 C-61.91551214 269.39958506 -61.91551214 269.39958506 -58.375 268.25 C-48.74583662 258.34333647 -47.05559963 242.2724511 -44.25 229.1875 C-43.58990265 226.11119124 -42.91921208 223.03746615 -42.2421875 219.96484375 C-42.09836639 219.277285 -41.95454529 218.58972626 -41.80636597 217.8813324 C-40.6610296 212.68945905 -39.18932596 208.06432596 -35.375 204.25 C-28.99792188 203.61229219 -23.87210908 204.90325575 -18.59375 208.4453125 C4.0890815 228.13813439 3.50738882 271.0556144 5.625 298.25 C8.63943015 296.84213375 11.22169227 295.18552319 13.890625 293.203125 C14.69886719 292.605 15.50710937 292.006875 16.33984375 291.390625 C17.17644531 290.76671875 18.01304687 290.1428125 18.875 289.5 C19.69613281 288.8915625 20.51726562 288.283125 21.36328125 287.65625 C22.17667969 287.05296875 22.99007812 286.4496875 23.828125 285.828125 C24.63185547 285.23451172 25.43558594 284.64089844 26.26367188 284.02929688 C27.82238812 282.85478034 29.3610553 281.65311214 30.87695312 280.42382812 C31.57240234 279.86630859 32.26785156 279.30878906 32.984375 278.734375 C33.59249023 278.23131836 34.20060547 277.72826172 34.82714844 277.20996094 C36.625 276.25 36.625 276.25 38.75 276.52368164 C47.86764431 280.05558162 52.79218785 292.05734088 56.61181641 300.40722656 C67.55444012 325.50862509 69.93723627 354.12022756 60.625 380.25 C59.56572103 382.66442228 58.46912546 385.04739833 57.30566406 387.41333008 C57.08104492 388.01943115 56.85642578 388.62553223 56.625 389.25 C56.955 389.91 57.285 390.57 57.625 391.25 C80.07942282 375.70128942 96.49984585 355.09058707 107.625 330.25 C107.90714355 329.6223877 108.18928711 328.99477539 108.47998047 328.34814453 C114.29140211 315.19453786 117.71354873 301.49534207 119.625 287.25 C119.73714844 286.41984375 119.84929687 285.5896875 119.96484375 284.734375 C123.78351513 250.62788539 116.45896335 215.10677731 99.625 185.25 C99.28484863 184.64607422 98.94469727 184.04214844 98.59423828 183.41992188 C96.6529285 180.0002655 94.66305655 176.6127933 92.625 173.25 C89.77997821 174.5908073 87.30550993 176.10768138 84.78125 177.98046875 C84.03915283 178.52912598 83.29705566 179.0777832 82.5324707 179.64306641 C81.73800537 180.23522949 80.94354004 180.82739258 80.125 181.4375 C78.88206177 182.35668213 78.88206177 182.35668213 77.61401367 183.29443359 C73.12168577 186.62311413 68.65388042 189.98190832 64.20703125 193.37109375 C62.88445312 194.37523315 62.88445312 194.37523315 61.53515625 195.3996582 C59.84448435 196.68529978 58.15804168 197.9765284 56.4765625 199.27416992 C47.25974203 206.27914391 40.48071094 209.68930408 28.625 208.25 C22.49842455 206.56643699 17.95523198 202.61655218 14.625 197.25 C12.82895653 192.68568505 12.31334477 188.68943705 12.1328125 183.80078125 C12.06970251 182.31549197 12.00612355 180.83022255 11.94213867 179.3449707 C11.91139252 178.56642731 11.88064636 177.78788391 11.84896851 176.98574829 C10.01006702 106.06506139 10.01006702 106.06506139 -19.375 44.25 C-21.9747095 42.51628369 -21.9747095 42.51628369 -24.375 41.25 Z M-26.375 293.25 C-29.28055448 298.39384499 -30.56912487 303.48798694 -31.875 309.1875 C-33.24538529 315.14204513 -34.60516947 320.77559673 -37.375 326.25 C-39.75 327.5 -39.75 327.5 -42.375 327.25 C-44.8125 325.25 -44.8125 325.25 -47.375 322.25 C-47.91898438 321.62480469 -48.46296875 320.99960937 -49.0234375 320.35546875 C-50.48930396 318.66593722 -51.93772835 316.96386001 -53.375 315.25 C-66.94199372 327.58363065 -74.21536199 346.38275798 -75.53515625 364.44140625 C-76.07586187 379.08747583 -70.94284048 392.67023033 -61.125 403.4375 C-57.25927772 407.8563731 -57.25927772 407.8563731 -51.91049194 409.4173584 C-50.87316925 409.43625122 -49.83584656 409.45514404 -48.76708984 409.47460938 C-47.59181732 409.49712769 -46.4165448 409.519646 -45.20565796 409.54284668 C-39.81341964 409.6137776 -34.42135678 409.67157186 -29.02880859 409.70996094 C-26.18639323 409.73218886 -23.34530086 409.7738804 -20.50341797 409.83300781 C-16.40572271 409.91808659 -12.30945578 409.94528418 -8.2109375 409.96875 C-6.94607513 410.00174194 -5.68121277 410.03473389 -4.37802124 410.06872559 C1.65118435 410.055099 5.66447425 409.90124293 10.34545898 405.86669922 C11.47466798 404.69481157 12.57335879 403.49196795 13.625 402.25 C14.38683594 401.39664063 15.14867187 400.54328125 15.93359375 399.6640625 C25.14273795 386.52029548 28.10310863 372.88462565 25.875 357.1875 C24.20625861 348.22960349 21.11245241 339.86720146 14.625 333.25 C13.305 332.59 11.985 331.93 10.625 331.25 C5.345 335.21 0.065 339.17 -5.375 343.25 C-5.478125 340.94 -5.58125 338.63 -5.6875 336.25 C-6.88998771 314.35054671 -6.88998771 314.35054671 -17.3125 296.0625 C-20.46298032 294.19793001 -22.74376778 293.50937373 -26.375 293.25 Z " fill="#E48F0E" transform="translate(228.375,9.75)"/>
</svg>
