<?xml version="1.0" encoding="UTF-8"?>
<svg version="1.1" xmlns="http://www.w3.org/2000/svg" width="344" height="113">
<path d="M0 0 C5.88617583 1.23980475 9.64314793 5.72219017 12.984375 10.41796875 C16.41069993 17.66596379 17.54597096 25.58325736 18.984375 33.41796875 C20.36109375 32.67933594 20.36109375 32.67933594 21.765625 31.92578125 C25.86550188 30.00520786 27.68229365 30.03515689 31.984375 31.41796875 C39.94469295 38.0104039 44.20632571 49.34394817 45.17333984 59.37890625 C46.12552449 74.17386186 42.75749248 86.54670902 33.46484375 98.34765625 C27.17360497 105.23587389 19.1766446 110.54909219 9.75152588 111.23640442 C6.74030521 111.34015568 3.74187617 111.34194477 0.72973633 111.27563477 C-1.58060989 111.23042012 -3.88293117 111.25500988 -6.19335938 111.28710938 C-17.19393336 111.28769978 -24.23528587 108.87349264 -33.06640625 102.06640625 C-42.78286779 92.29960035 -48.90844868 80.06015007 -49.1796875 66.08984375 C-48.92952757 49.20052496 -42.24834431 32.43195417 -30.97265625 19.921875 C-28.57746279 18.08125727 -27.03311954 17.54074631 -24.015625 17.41796875 C-22.03125 18.5625 -22.03125 18.5625 -20.265625 20.23046875 C-19.67265625 20.77316406 -19.0796875 21.31585937 -18.46875 21.875 C-17.015625 23.41796875 -17.015625 23.41796875 -16.015625 25.41796875 C-15.89034424 24.83829346 -15.76506348 24.25861816 -15.63598633 23.66137695 C-15.05234329 21.01314629 -14.4405637 18.37218195 -13.828125 15.73046875 C-13.63154297 14.81845703 -13.43496094 13.90644531 -13.23242188 12.96679688 C-11.45257899 5.43669237 -8.92751239 -0.62089842 0 0 Z M-1.015625 13.41796875 C-1.39654297 15.17173828 -1.39654297 15.17173828 -1.78515625 16.9609375 C-2.13234667 18.50921912 -2.48002891 20.0573905 -2.828125 21.60546875 C-2.99376953 22.37439453 -3.15941406 23.14332031 -3.33007812 23.93554688 C-4.31752515 28.27658757 -5.43163387 31.71050321 -8.015625 35.41796875 C-8.4075 36.01609375 -8.799375 36.61421875 -9.203125 37.23046875 C-12.29817749 39.25826176 -15.51711743 39.13299219 -19.015625 38.41796875 C-21.66544052 36.98348215 -23.68080943 35.36364839 -26.015625 33.41796875 C-34.02914492 45.2512665 -38.90108116 59.44025979 -36.390625 73.79296875 C-34.69289717 80.7779061 -31.03640767 87.37804964 -25.015625 91.41796875 C-25.05042969 90.73992187 -25.08523437 90.061875 -25.12109375 89.36328125 C-25.40464648 79.61446835 -23.59324315 72.05772585 -18.00390625 64.01171875 C-16.83995838 62.44722979 -16.83995838 62.44722979 -17.015625 60.41796875 C-15.55078125 61.72005208 -14.0859375 63.02213542 -12.62109375 64.32421875 C-10.926177 65.69948116 -10.926177 65.69948116 -8.015625 65.41796875 C-7.3455416 63.29404369 -6.67965703 61.16879351 -6.015625 59.04296875 C-5.644375 57.85960937 -5.273125 56.67625 -4.890625 55.45703125 C-3.92339894 52.62473436 -3.92339894 52.62473436 -4.015625 50.41796875 C-1.36036227 51.00802713 0.44513151 51.71969413 2.13671875 53.91015625 C5.33095849 59.72005646 6.1600081 65.90980899 6.984375 72.41796875 C8.964375 71.09796875 10.944375 69.77796875 12.984375 68.41796875 C16.26304699 69.43548764 16.96986563 70.39062416 18.609375 73.48046875 C20.29762757 77.63933484 20.33007812 81.42172483 20.171875 85.85546875 C20.15157227 86.9527832 20.15157227 86.9527832 20.13085938 88.07226562 C20.09591374 89.85449297 20.04212305 91.63633448 19.984375 93.41796875 C24.38468554 90.07619445 26.90713477 87.45057527 29.296875 82.35546875 C30.03357422 80.82212891 30.03357422 80.82212891 30.78515625 79.2578125 C34.96172645 69.36736775 33.60142359 58.69397012 30.25 48.74609375 C28.81011601 46.09741827 27.77654167 45.42690292 24.984375 44.41796875 C24.39269531 44.92328125 23.80101562 45.42859375 23.19140625 45.94921875 C22.40121094 46.59890625 21.61101562 47.24859375 20.796875 47.91796875 C19.63091797 48.8925 19.63091797 48.8925 18.44140625 49.88671875 C15.59531267 51.66043685 14.26581025 52.14837005 10.984375 51.41796875 C7.16284764 47.28152711 7.38425439 42.13059806 7.046875 36.79296875 C6.44290647 29.35546994 5.8007136 22.01846896 1.984375 15.41796875 C0.994375 14.75796875 0.004375 14.09796875 -1.015625 13.41796875 Z M-1.015625 72.41796875 C-1.675625 75.05796875 -2.335625 77.69796875 -3.015625 80.41796875 C-6.015625 79.41796875 -6.015625 79.41796875 -8.015625 77.41796875 C-11.31858169 82.96221747 -12.7591443 86.93872917 -12.015625 93.41796875 C-10.28594787 97.16344479 -10.28594787 97.16344479 -7.015625 99.41796875 C-4.89522674 99.59228721 -2.76769192 99.68505946 -0.640625 99.73046875 C1.07253906 99.78654297 1.07253906 99.78654297 2.8203125 99.84375 C6.60012422 99.33510867 7.6708984 98.37285948 9.984375 95.41796875 C11.56930584 92.24810707 11.2783792 88.87764614 10.984375 85.41796875 C10.12171532 83.01239022 10.12171532 83.01239022 8.984375 81.41796875 C8.365625 81.72734375 7.746875 82.03671875 7.109375 82.35546875 C5.734375 83.04296875 4.359375 83.73046875 2.984375 84.41796875 C3.025625 83.18046875 3.066875 81.94296875 3.109375 80.66796875 C3.12095791 77.40158913 2.8412452 75.20327405 0.984375 72.41796875 C0.324375 72.41796875 -0.335625 72.41796875 -1.015625 72.41796875 Z " fill="#E58E0E" transform="translate(114.015625,1.58203125)"/>
<path d="M0 0 C4.145625 -0.0309375 4.145625 -0.0309375 8.375 -0.0625 C9.24431152 -0.071604 10.11362305 -0.08070801 11.00927734 -0.09008789 C16.77777778 -0.11111111 16.77777778 -0.11111111 19 1 C19.66 0.67 20.32 0.34 21 0 C22.875 -0.16796875 22.875 -0.16796875 25 -0.1875 C26.051875 -0.20876953 26.051875 -0.20876953 27.125 -0.23046875 C29 0 29 0 31 2 C32.15272215 5.27582263 32.1152517 8.41066762 32.09765625 11.859375 C32.09443359 12.97441406 32.09121094 14.08945313 32.08789062 15.23828125 C32.07532227 16.97658203 32.07532227 16.97658203 32.0625 18.75 C32.05798828 19.92433594 32.05347656 21.09867188 32.04882812 22.30859375 C32.03705094 25.20578072 32.02060326 28.10286454 32 31 C29.69 31 27.38 31 25 31 C25 22.42 25 13.84 25 5 C23.35 5.33 21.7 5.66 20 6 C19.67 14.25 19.34 22.5 19 31 C16.69 31 14.38 31 12 31 C11.67 22.42 11.34 13.84 11 5 C10.01 5.33 9.02 5.66 8 6 C7.67 14.25 7.34 22.5 7 31 C4.69 31 2.38 31 0 31 C0 20.77 0 10.54 0 0 Z " fill="#F6F6F6" transform="translate(169,59)"/>
<path d="M0 0 C4.95 0 9.9 0 15 0 C19.92072454 4.92072454 19.21428712 8.64758386 19.25 15.3125 C19.270625 16.26318359 19.29125 17.21386719 19.3125 18.19335938 C19.3619702 27.04234091 19.3619702 27.04234091 16 31 C13.29120665 32.35439668 10.99066732 32.06501451 8 32 C7.67 34.97 7.34 37.94 7 41 C4.69 41 2.38 41 0 41 C0 27.47 0 13.94 0 0 Z M7 6 C7 12.6 7 19.2 7 26 C7.99 26.33 8.98 26.66 10 27 C12.15817335 25.24776007 12.15817335 25.24776007 12.24291992 23.15234375 C12.23881104 22.42144531 12.23470215 21.69054687 12.23046875 20.9375 C12.22853516 20.14085937 12.22660156 19.34421875 12.22460938 18.5234375 C12.21236328 17.69070312 12.20011719 16.85796875 12.1875 16 C12.18685547 15.16726562 12.18621094 14.33453125 12.18554688 13.4765625 C12.28680922 9.0888953 12.28680922 9.0888953 11 5 C8.9254644 4.8509288 8.9254644 4.8509288 7 6 Z " fill="#F6F6F6" transform="translate(205,59)"/>
<path d="M0 0 C2.84840673 1.87578004 3.73424194 2.96749401 4.578125 6.24609375 C5.71723127 13.68192634 6.03981725 22.00842033 3 29 C0.51091775 31.96775192 -1.03730787 32.00473751 -4.9375 32.5 C-8.37809053 32.37161976 -9.0207205 31.98412898 -11.9375 29.75 C-15.26429677 25.31427097 -15.15801794 21.60866226 -15.1875 16.125 C-15.20167969 14.93132812 -15.21585937 13.73765625 -15.23046875 12.5078125 C-14.94659232 8.18711705 -14.22099077 4.71373483 -11.68359375 1.15234375 C-8.2442741 -1.20171494 -3.96804475 -0.58544922 0 0 Z M-6 5 C-8.72335305 11.46796349 -8.85133096 17.91392525 -7 24.625 C-6.67 25.40875 -6.34 26.1925 -6 27 C-5.01 26.67 -4.02 26.34 -3 26 C-3 19.4 -3 12.8 -3 6 C-3.99 5.67 -4.98 5.34 -6 5 Z " fill="#F6F6F6" transform="translate(320,59)"/>
<path d="M0 0 C3.28931514 1.72689045 3.8140267 2.4420801 5 6 C5.13143471 9.33844165 5.04340976 12.65744868 5 16 C1.04 16 -2.92 16 -7 16 C-6.896875 17.44375 -6.79375 18.8875 -6.6875 20.375 C-6.60048828 21.59316406 -6.60048828 21.59316406 -6.51171875 22.8359375 C-6.17009472 25.37921338 -6.17009472 25.37921338 -3 27 C-2.67 24.69 -2.34 22.38 -2 20 C0.31 20 2.62 20 5 20 C4.81059603 28.21324503 4.81059603 28.21324503 1.875 31.0625 C-2.36771654 32.44599453 -6.01902272 32.58893919 -10.3125 31.3125 C-12.72657295 29.43488771 -13.10465987 27.95003093 -14 25 C-14.31097793 21.8296406 -14.32468846 18.68362454 -14.3125 15.5 C-14.32861328 14.65824219 -14.34472656 13.81648438 -14.36132812 12.94921875 C-14.36510107 8.15757346 -14.15431919 4.86807025 -11 1 C-7.5607468 -0.7196266 -3.76835438 -0.38219964 0 0 Z M-6 5 C-7.35439668 7.70879335 -7.06501451 10.00933268 -7 13 C-5.35 13 -3.7 13 -2 13 C-2 10.69 -2 8.38 -2 6 C-3.32 5.67 -4.64 5.34 -6 5 Z " fill="#F6F6F6" transform="translate(258,59)"/>
<path d="M0 0 C4.29 0 8.58 0 13 0 C17.53857211 5.67321514 17.53857211 5.67321514 17.4375 9.0625 C17 13 17 13 15.359375 14.76171875 C13.61002864 17.09852432 13.61002864 17.09852432 14.58203125 20.671875 C14.97298409 22.03689677 15.3838814 23.39633289 15.8125 24.75 C16.01681641 25.44738281 16.22113281 26.14476563 16.43164062 26.86328125 C16.93743159 28.58061802 17.46649107 30.29107101 18 32 C16.02 32 14.04 32 12 32 C9.94637945 26.91059256 8.56820748 22.45479185 8 17 C7.34 17 6.68 17 6 17 C6 21.95 6 26.9 6 32 C4.02 32 2.04 32 0 32 C0 21.44 0 10.88 0 0 Z M6 4 C6 6.97 6 9.94 6 13 C7.65 12.67 9.3 12.34 11 12 C11 9.69 11 7.38 11 5 C9.35 4.67 7.7 4.34 6 4 Z " fill="#E8E8E8" transform="translate(2,56)"/>
<path d="M0 0 C3 2.25 3 2.25 5 5 C5 6.32 5 7.64 5 9 C3.35 9.33 1.7 9.66 0 10 C-0.4021875 9.0409375 -0.4021875 9.0409375 -0.8125 8.0625 C-1.88667752 5.66868314 -1.88667752 5.66868314 -5 5 C-4.91638941 7.84276007 -4.47005538 9.52758254 -2.4453125 11.5625 C-1.2114315 12.58646763 0.03965276 13.59012844 1.30859375 14.5703125 C3.57784595 16.4884333 4.88522658 18.17720876 5.30078125 21.15625 C5.30658203 22.31640625 5.30658203 22.31640625 5.3125 23.5 C5.32925781 24.2734375 5.34601563 25.046875 5.36328125 25.84375 C4.91433761 28.50844776 4.08370799 29.33708948 2 31 C-1.10048928 32.55024464 -3.57894218 32.28992015 -7 32 C-9.875 30.375 -9.875 30.375 -12 28 C-12.8125 24.75 -12.8125 24.75 -13 22 C-11.02 21.67 -9.04 21.34 -7 21 C-6.54625 21.825 -6.0925 22.65 -5.625 23.5 C-5.08875 24.325 -4.5525 25.15 -4 26 C-3.34 26 -2.68 26 -2 26 C-2.08361059 23.15723993 -2.52994462 21.47241746 -4.5546875 19.4375 C-5.7885685 18.41353237 -7.03965276 17.40987156 -8.30859375 16.4296875 C-11.41543315 13.80358307 -11.98930333 12.11231504 -12.375 8.0625 C-12.27840517 5.14855609 -12.04439756 4.07399594 -10.5 1.5 C-7.02019982 -0.58788011 -3.89167862 -0.90163643 0 0 Z " fill="#F6F6F6" transform="translate(278,59)"/>
<path d="M0 0 C3 2.25 3 2.25 5 5 C5 6.32 5 7.64 5 9 C3.02 9.33 1.04 9.66 -1 10 C-1.33 8.68 -1.66 7.36 -2 6 C-2.99 6 -3.98 6 -5 6 C-4.49451327 10.0898472 -2.47919525 11.57421253 0.5625 14.1875 C3.78287087 17.30001156 5.6716331 19.24804282 5.875 23.8125 C5.5101077 27.02355222 5.03548996 27.95590641 2.9375 30.5625 C-1.31754995 32.64475849 -4.81382609 32.70902938 -9.3125 31.25 C-11.41819789 29.69022379 -12.13032502 28.46407912 -13 26 C-13 24.68 -13 23.36 -13 22 C-11.02 21.67 -9.04 21.34 -7 21 C-6.54625 21.825 -6.0925 22.65 -5.625 23.5 C-5.08875 24.325 -4.5525 25.15 -4 26 C-3.34 26 -2.68 26 -2 26 C-2.33910146 22.92159459 -2.67380681 21.35079828 -4.8125 19.05078125 C-5.534375 18.47714844 -6.25625 17.90351562 -7 17.3125 C-11.83587996 13.41788953 -11.83587996 13.41788953 -12.23828125 9.94140625 C-12.43613462 3.5996851 -12.43613462 3.5996851 -10.5 0.9375 C-6.94063615 -0.39726144 -3.70122384 -0.79154886 0 0 Z " fill="#F6F6F6" transform="translate(298,59)"/>
<path d="M0 0 C1.9375 1.5625 1.9375 1.5625 3 4 C3.22886309 6.72034996 3.13702696 9.25946073 3 12 C1.35 12 -0.3 12 -2 12 C-2.66 9.69 -3.32 7.38 -4 5 C-5.32 5.33 -6.64 5.66 -8 6 C-8 13.26 -8 20.52 -8 28 C-6.68 27.67 -5.36 27.34 -4 27 C-3.01 23.535 -3.01 23.535 -2 20 C-0.35 20 1.3 20 3 20 C3.60356653 27.12208505 3.60356653 27.12208505 0.9375 31 C-2.76272533 33.51930235 -4.6031656 33.7066341 -9 33 C-12.38939556 30.86320715 -13.72582557 29.8225233 -15 26 C-15.25257326 22.71272075 -15.23124619 19.42098276 -15.25 16.125 C-15.270625 15.22652344 -15.29125 14.32804687 -15.3125 13.40234375 C-15.34166454 8.46624486 -15.29914924 4.9653236 -12 1 C-7.89951066 -1.5058546 -4.57319851 -1.18564406 0 0 Z " fill="#E7E7E7" transform="translate(52,56)"/>
<path d="M0 0 C5 0 10 0 15 0 C15 2.31 15 4.62 15 7 C14.030625 7.144375 13.06125 7.28875 12.0625 7.4375 C9.13513227 7.67562341 9.13513227 7.67562341 8 9 C7.84285346 10.63256758 7.74914586 12.27135338 7.68359375 13.91015625 C7.64169922 14.89951172 7.59980469 15.88886719 7.55664062 16.90820312 C7.51732422 17.94912109 7.47800781 18.99003906 7.4375 20.0625 C7.37272461 21.62967773 7.37272461 21.62967773 7.30664062 23.22851562 C7.20018775 25.81886884 7.0981724 28.40932186 7 31 C4.69 31 2.38 31 0 31 C0 20.77 0 10.54 0 0 Z " fill="#F6F6F6" transform="translate(328,59)"/>
<path d="M0 0 C5 0 10 0 15 0 C15 2.31 15 4.62 15 7 C14.21625 6.95875 13.4325 6.9175 12.625 6.875 C9.83883881 6.71271266 9.83883881 6.71271266 8 9 C7.62948007 11.3245339 7.62948007 11.3245339 7.5859375 14.0078125 C7.54726562 14.99394531 7.50859375 15.98007813 7.46875 16.99609375 C7.4378125 18.02863281 7.406875 19.06117187 7.375 20.125 C7.33632812 21.16527344 7.29765625 22.20554687 7.2578125 23.27734375 C7.16335234 25.85138311 7.07778786 28.42541155 7 31 C4.69 31 2.38 31 0 31 C0 20.77 0 10.54 0 0 Z " fill="#F5F5F5" transform="translate(228,59)"/>
<path d="M0 0 C5.28 0 10.56 0 16 0 C16 1.32 16 2.64 16 4 C14.35 4 12.7 4 11 4 C11 13.24 11 22.48 11 32 C9.02 32 7.04 32 5 32 C5 22.76 5 13.52 5 4 C3.35 4 1.7 4 0 4 C0 2.68 0 1.36 0 0 Z " fill="#E8E8E8" transform="translate(20,56)"/>
</svg>
