<?xml version="1.0" standalone="no"?>
<!DOCTYPE svg PUBLIC "-//W3C//DTD SVG 20010904//EN"
 "http://www.w3.org/TR/2001/REC-SVG-20010904/DTD/svg10.dtd">
<svg version="1.0" xmlns="http://www.w3.org/2000/svg"
 width="298.000000pt" height="53.000000pt" viewBox="0 0 298.000000 53.000000"
 preserveAspectRatio="xMidYMid meet">

<g transform="translate(0.000000,53.000000) scale(0.100000,-0.100000)"
fill="#000000" stroke="none">
<path d="M30 265 l0 -205 25 0 c25 0 25 0 25 96 l0 95 27 -3 c24 -3 28 -10 51
-95 22 -84 27 -93 48 -93 30 0 30 2 -2 110 -25 89 -25 89 -5 109 27 27 36 81
21 126 -15 45 -56 65 -135 65 l-55 0 0 -205z m125 151 c14 -10 20 -26 20 -56
0 -48 -21 -70 -67 -70 l-28 0 0 70 0 70 28 0 c16 0 37 -6 47 -14z"/>
<path d="M260 450 c0 -16 7 -20 35 -20 l35 0 0 -185 0 -185 25 0 25 0 0 185 0
185 35 0 c28 0 35 4 35 20 0 19 -7 20 -95 20 -88 0 -95 -1 -95 -20z"/>
<path d="M519 441 l-29 -29 0 -145 c0 -142 1 -146 26 -176 22 -27 32 -31 74
-31 69 0 92 22 98 93 4 56 4 57 -22 57 -24 0 -26 -3 -26 -43 0 -24 -5 -48 -12
-55 -19 -19 -66 -15 -78 7 -5 11 -10 78 -10 150 0 140 7 161 54 161 33 0 46
-19 46 -67 0 -39 2 -43 25 -43 23 0 25 3 25 50 0 69 -30 100 -95 100 -38 0
-52 -5 -76 -29z"/>
<path d="M1242 424 c-12 -8 -22 -10 -22 -5 0 6 -11 11 -25 11 l-25 0 0 -155 0
-155 25 0 25 0 0 134 c0 142 1 146 50 146 26 0 30 -19 30 -156 l0 -124 25 0
25 0 0 135 0 135 25 6 c52 13 55 6 55 -141 l0 -135 25 0 25 0 0 133 c0 86 -5
141 -13 157 -15 31 -59 38 -93 15 -23 -15 -27 -15 -43 -1 -22 20 -60 20 -89 0z"/>
<path d="M1621 431 c-8 -5 -29 -7 -48 -4 l-33 6 0 -207 0 -206 25 0 c24 0 25
3 25 60 0 55 10 75 25 50 9 -14 58 -12 79 3 46 33 49 239 4 286 -20 22 -53 27
-77 12z m47 -153 c-3 -83 -6 -103 -20 -112 -13 -8 -23 -8 -35 0 -15 9 -18 29
-21 113 -3 98 -2 102 20 110 13 5 30 5 41 -1 15 -8 17 -22 15 -110z"/>
<path d="M1866 419 c-21 -17 -26 -18 -26 -5 0 10 -9 16 -25 16 l-25 0 0 -155
0 -155 25 0 25 0 0 118 c0 128 5 142 52 142 24 0 28 4 28 30 0 36 -16 39 -54
9z"/>
<path d="M1983 416 c-25 -22 -28 -31 -31 -105 -7 -148 14 -191 91 -191 52 0
75 20 84 74 5 33 4 36 -19 36 -18 0 -26 -7 -33 -32 -13 -45 -51 -51 -65 -12
-6 15 -10 42 -8 58 3 31 4 31 66 34 l62 3 0 38 c0 50 -18 99 -40 111 -32 17
-78 11 -107 -14z m87 -42 c20 -51 14 -64 -30 -64 l-41 0 7 38 c9 48 11 52 35
52 12 0 23 -10 29 -26z"/>
<path d="M2203 414 c-41 -41 -28 -86 43 -149 44 -40 55 -55 53 -75 -3 -19 -11
-26 -32 -28 -22 -3 -30 2 -40 25 -15 34 -47 34 -47 -1 0 -33 40 -66 81 -66 44
0 76 22 84 59 8 39 -12 76 -69 128 -49 44 -55 63 -31 83 19 16 45 6 52 -21 7
-24 36 -22 41 3 2 10 -8 29 -22 43 -34 33 -79 33 -113 -1z"/>
<path d="M2413 425 c-27 -19 -38 -67 -22 -97 6 -13 34 -43 61 -67 39 -34 48
-49 46 -70 -2 -20 -9 -27 -31 -29 -23 -3 -29 2 -38 26 -8 23 -15 29 -30 25
-25 -7 -24 -34 2 -67 16 -21 29 -26 64 -26 36 0 47 5 65 27 34 44 22 85 -46
154 -58 58 -64 82 -28 96 12 4 24 -2 38 -20 27 -34 46 -35 46 -3 0 51 -80 84
-127 51z"/>
<path d="M2623 416 c-25 -22 -28 -31 -31 -105 -5 -99 3 -146 29 -172 25 -25
89 -25 120 0 22 17 24 29 27 116 2 52 1 107 -2 121 -16 64 -90 85 -143 40z
m87 -35 c5 -11 10 -57 10 -103 0 -91 -13 -123 -46 -116 -17 3 -19 14 -22 107
-1 58 0 111 2 118 8 20 44 16 56 -6z"/>
<path d="M2916 419 c-21 -17 -26 -18 -26 -5 0 11 -9 16 -30 16 l-30 0 0 -155
0 -155 30 0 30 0 0 118 c0 125 6 142 47 142 19 0 23 5 23 30 0 35 -8 37 -44 9z"/>
</g>
</svg>
