<?xml version="1.0" encoding="UTF-8"?>
<svg version="1.1" xmlns="http://www.w3.org/2000/svg" width="319" height="106">
<path d="M0 0 C4.98534201 1.03043486 7.91050275 3.97528157 10.671875 8.03515625 C14.81989623 15.20112883 16.3024259 23.38855287 17.984375 31.41015625 C18.70625 30.91515625 19.428125 30.42015625 20.171875 29.91015625 C23.25851115 28.2639503 24.55791645 27.95848671 27.984375 28.41015625 C36.33385793 34.98712325 40.6608718 45.08037514 41.984375 55.41015625 C43.05794741 67.90263517 40.63782421 79.04704991 32.96875 89.125 C26.8781216 96.1388142 20.06095988 102.71807589 10.50317383 103.80664062 C7.07845004 103.95402254 3.68441815 104.01750521 0.25830078 103.98657227 C-1.88017227 103.97272394 -4.01423988 104.00682046 -6.15234375 104.04492188 C-16.07768621 104.10256863 -22.99092784 102.24514337 -30.96875 96.15625 C-41.57324376 85.49765168 -46.41541931 73.75723754 -46.45922852 58.83056641 C-46.02272633 43.63888802 -39.13668472 29.50643939 -29.296875 18.24609375 C-27.015625 16.41015625 -27.015625 16.41015625 -24.47265625 15.94921875 C-21.55636844 16.49631249 -20.34855224 17.39093062 -18.203125 19.41015625 C-17.59855469 19.96703125 -16.99398437 20.52390625 -16.37109375 21.09765625 C-15.92378906 21.53078125 -15.47648437 21.96390625 -15.015625 22.41015625 C-14.78488281 21.24097656 -14.55414063 20.07179688 -14.31640625 18.8671875 C-13.98796081 17.31880186 -13.65847878 15.77063586 -13.328125 14.22265625 C-13.10479492 13.06926758 -13.10479492 13.06926758 -12.87695312 11.89257812 C-11.29926953 4.68472956 -8.29372429 -0.60799859 0 0 Z M-1.015625 12.41015625 C-1.48742187 14.27220703 -1.48742187 14.27220703 -1.96875 16.171875 C-2.4003875 17.81397418 -2.83271567 19.45589191 -3.265625 21.09765625 C-3.47058594 21.91427734 -3.67554687 22.73089844 -3.88671875 23.57226562 C-5.15720083 28.32694857 -6.40367925 31.86834537 -10.015625 35.41015625 C-13.8787766 36.56088226 -17.19553415 36.7896335 -21.015625 35.41015625 C-22.203125 33.41015625 -22.203125 33.41015625 -23.015625 31.41015625 C-23.675625 31.08015625 -24.335625 30.75015625 -25.015625 30.41015625 C-32.05658823 43.60786872 -38.04860555 56.21899713 -33.70703125 71.4296875 C-31.6118194 77.43122652 -29.45018355 81.78711721 -24.015625 85.41015625 C-24.06783203 84.50136719 -24.06783203 84.50136719 -24.12109375 83.57421875 C-24.43704956 73.79463412 -22.16267937 65.18019527 -16.015625 57.41015625 C-15.025625 56.91515625 -15.025625 56.91515625 -14.015625 56.41015625 C-13.355625 57.73015625 -12.695625 59.05015625 -12.015625 60.41015625 C-10.695625 60.41015625 -9.375625 60.41015625 -8.015625 60.41015625 C-6.695625 56.45015625 -5.375625 52.49015625 -4.015625 48.41015625 C0.984375 49.41015625 0.984375 49.41015625 2.671875 51.72265625 C4.49639032 56.84867549 5.24482698 62.03320715 5.984375 67.41015625 C9.449375 65.43015625 9.449375 65.43015625 12.984375 63.41015625 C18.71547025 70.6107631 18.85778322 77.57174832 18.984375 86.41015625 C24.45858101 84.58542091 26.48628237 78.34481214 28.984375 73.41015625 C32.96588897 63.40443854 30.81713665 54.95245128 27.2734375 45.25390625 C26.29595228 42.30344378 26.29595228 42.30344378 23.984375 41.41015625 C23.32050781 41.92707031 22.65664062 42.44398437 21.97265625 42.9765625 C21.08964844 43.63527344 20.20664063 44.29398438 19.296875 44.97265625 C18.42675781 45.63394531 17.55664062 46.29523437 16.66015625 46.9765625 C13.984375 48.41015625 13.984375 48.41015625 11.27734375 48.375 C8.984375 47.41015625 8.984375 47.41015625 7.87182617 45.60986328 C6.96886143 43.37170308 6.65493437 41.64763944 6.4921875 39.25 C6.42902344 38.46093262 6.36585937 37.67186523 6.30078125 36.85888672 C6.23761719 36.03018066 6.17445312 35.20147461 6.109375 34.34765625 C5.45121207 27.02001601 4.56459927 19.98322425 0.984375 13.41015625 C0.324375 13.08015625 -0.335625 12.75015625 -1.015625 12.41015625 Z M-1.015625 67.41015625 C-2.005625 69.72015625 -2.995625 72.03015625 -4.015625 74.41015625 C-5.665625 74.08015625 -7.315625 73.75015625 -9.015625 73.41015625 C-11.42845237 78.33634547 -12.54459274 81.8030982 -12.015625 87.41015625 C-10.99825729 90.1715829 -10.65391759 91.09100996 -8.015625 92.41015625 C-3.29799105 92.87719019 1.27378644 92.98164108 5.984375 92.41015625 C9.1993778 90.13021584 9.1993778 90.13021584 9.984375 86.41015625 C10.023804 82.861546 9.59153264 79.62447152 7.984375 76.41015625 C6.004375 77.40015625 6.004375 77.40015625 3.984375 78.41015625 C3.79101562 77.69988281 3.59765625 76.98960938 3.3984375 76.2578125 C3.00785156 74.87916016 3.00785156 74.87916016 2.609375 73.47265625 C2.35414062 72.55613281 2.09890625 71.63960938 1.8359375 70.6953125 C1.21777396 68.24270538 1.21777396 68.24270538 -1.015625 67.41015625 Z " fill="#E58E0E" transform="translate(116.015625,1.58984375)"/>
<path d="M0 0 C13.75 -0.125 13.75 -0.125 16 1 C16.66 0.67 17.32 0.34 18 0 C21.5 -0.1875 21.5 -0.1875 25 0 C27 2 27 2 27.22705078 4.52197266 C27.21657715 5.5588623 27.20610352 6.59575195 27.1953125 7.6640625 C27.18886719 8.78554688 27.18242187 9.90703125 27.17578125 11.0625 C27.15902344 12.238125 27.14226562 13.41375 27.125 14.625 C27.11597656 15.80835938 27.10695312 16.99171875 27.09765625 18.2109375 C27.07402812 21.14082523 27.04108514 24.0703134 27 27 C25.02 27 23.04 27 21 27 C21 19.41 21 11.82 21 4 C19.02 4.99 19.02 4.99 17 6 C16.67 12.93 16.34 19.86 16 27 C14.02 27 12.04 27 10 27 C10 19.41 10 11.82 10 4 C9.01 4.33 8.02 4.66 7 5 C6.67 12.26 6.34 19.52 6 27 C4.02 27 2.04 27 0 27 C0 18.09 0 9.18 0 0 Z " fill="#FFFFFF" transform="translate(167,42)"/>
<path d="M0 0 C13 0 13 0 18 3 C19.21439799 6.64319397 19.61130827 10.20843325 19 14 C18.46246094 14.56332031 17.92492187 15.12664063 17.37109375 15.70703125 C15.73553558 18.44228095 15.95778689 19.0798748 16.58203125 22.109375 C16.97328776 23.66113811 17.38418197 25.2080551 17.8125 26.75 C18.01681641 27.54277344 18.22113281 28.33554688 18.43164062 29.15234375 C18.93770089 31.10597176 19.46666374 33.05364139 20 35 C17.69 35 15.38 35 13 35 C11.68 29.72 10.36 24.44 9 19 C8.34 19 7.68 19 7 19 C7 24.28 7 29.56 7 35 C4.69 35 2.38 35 0 35 C0 23.45 0 11.9 0 0 Z M7 4 C7 7.63 7 11.26 7 15 C8.65 14.67 10.3 14.34 12 14 C13.206587 9.34882582 13.206587 9.34882582 11.75 5.0625 C9.91382165 3.74051093 9.91382165 3.74051093 7 4 Z " fill="#FFF9F9" transform="translate(2,38)"/>
<path d="M0 0 C4.62 0 9.24 0 14 0 C18.17222699 4.17222699 18.14653389 7.65613036 18.1875 13.375 C18.13762548 17.99462696 17.73373729 21.71128143 16 26 C12.77208445 28.1519437 11.71599191 28.20086443 8 28 C7.67 30.64 7.34 33.28 7 36 C4.69 36 2.38 36 0 36 C0 24.12 0 12.24 0 0 Z M7 5 C7 10.94 7 16.88 7 23 C8.32 22.67 9.64 22.34 11 22 C11 16.72 11 11.44 11 6 C9.68 5.67 8.36 5.34 7 5 Z " fill="#FFFFFF" transform="translate(197,42)"/>
<path d="M0 0 C2.57421875 0.4765625 2.57421875 0.4765625 5.26171875 2.4765625 C6.99614919 6.44097494 6.86585686 9.17490038 6.57421875 13.4765625 C4.59421875 13.4765625 2.61421875 13.4765625 0.57421875 13.4765625 C0.24421875 11.1665625 -0.08578125 8.8565625 -0.42578125 6.4765625 C-2.07578125 6.1465625 -3.72578125 5.8165625 -5.42578125 5.4765625 C-5.42578125 13.3965625 -5.42578125 21.3165625 -5.42578125 29.4765625 C-2.95078125 30.4665625 -2.95078125 30.4665625 -0.42578125 31.4765625 C0.06921875 27.0215625 0.06921875 27.0215625 0.57421875 22.4765625 C2.55421875 22.4765625 4.53421875 22.4765625 6.57421875 22.4765625 C7.02102726 31.26379654 7.02102726 31.26379654 3.57421875 35.4765625 C-0.60257715 36.8688278 -4.51130465 37.09747383 -8.73828125 35.7265625 C-10.86639521 34.15018179 -11.43764422 32.93425693 -12.42578125 30.4765625 C-12.87570628 26.34216738 -12.79606611 22.19545538 -12.80078125 18.0390625 C-12.83751953 16.34040039 -12.83751953 16.34040039 -12.875 14.60742188 C-12.90401583 6.40077863 -12.90401583 6.40077863 -10.74609375 2.23046875 C-7.14305118 -0.49304322 -4.37331922 -0.22187734 0 0 Z " fill="#FFF8F8" transform="translate(53.42578125,37.5234375)"/>
<path d="M0 0 C3.24750854 2.33154459 4.27867503 4.16416908 5 8 C5.51692379 15.04805707 5.41480875 20.73951728 2 27 C0.61135566 27.30556226 -0.78681264 27.56800808 -2.1875 27.8125 C-2.96480469 27.96332031 -3.74210937 28.11414063 -4.54296875 28.26953125 C-7 28 -7 28 -9.765625 26.109375 C-12.84328908 21.82647184 -12.70743401 18.58069875 -12.5625 13.4375 C-12.57345703 12.58736328 -12.58441406 11.73722656 -12.59570312 10.86132812 C-12.54979387 6.95904138 -12.48525202 4.69549251 -10.21484375 1.44140625 C-6.78374069 -0.79153383 -3.95505747 -0.81212679 0 0 Z M-5 5 C-6.41774838 6.18852855 -6.41774838 6.18852855 -6.09765625 9.59765625 C-6.0909822 11.08596867 -6.07902183 12.57426432 -6.0625 14.0625 C-6.05798828 14.82111328 -6.05347656 15.57972656 -6.04882812 16.36132812 C-6.0370068 18.24091871 -6.01907078 20.12046899 -6 22 C-4.68 22 -3.36 22 -2 22 C-2 16.39 -2 10.78 -2 5 C-2.99 5 -3.98 5 -5 5 Z " fill="#FFFFFF" transform="translate(297,42)"/>
<path d="M0 0 C2.5 1.375 2.5 1.375 4 4 C4.3204438 7.40738577 4.18095403 10.56187341 4 14 C0.7 14 -2.6 14 -6 14 C-5.67 16.64 -5.34 19.28 -5 22 C-4.34 22 -3.68 22 -3 22 C-2.67 20.35 -2.34 18.7 -2 17 C-0.02 17 1.96 17 4 17 C4.25 23.625 4.25 23.625 2 27 C-0.0234375 27.58203125 -0.0234375 27.58203125 -2.375 27.8125 C-3.14585937 27.90144531 -3.91671875 27.99039063 -4.7109375 28.08203125 C-7.3392521 27.9878425 -8.79686893 27.41213908 -11 26 C-12.81704899 22.36590202 -12.27040718 18.12662452 -12.3125 14.125 C-12.34150391 13.21363281 -12.37050781 12.30226563 -12.40039062 11.36328125 C-12.46397402 4.68213399 -12.46397402 4.68213399 -10.23046875 1.3984375 C-6.74884458 -0.7844372 -3.97252047 -0.76519862 0 0 Z M-5 5 C-6.29633621 6.06645115 -6.29633621 6.06645115 -6.0625 8.5625 C-6.041875 9.366875 -6.02125 10.17125 -6 11 C-4.68 11 -3.36 11 -2 11 C-2 9.35 -2 7.7 -2 6 C-2.99 5.67 -3.98 5.34 -5 5 Z " fill="#FFFFFF" transform="translate(244,42)"/>
<path d="M0 0 C2.5 2.3125 2.5 2.3125 4 5 C4 5.99 4 6.98 4 8 C2.35 8.33 0.7 8.66 -1 9 C-1.33 7.68 -1.66 6.36 -2 5 C-2.99 5.66 -3.98 6.32 -5 7 C-3.88625 8.0828125 -3.88625 8.0828125 -2.75 9.1875 C3.8948291 15.98334794 3.8948291 15.98334794 4.375 20.625 C4 24 4 24 2 27 C-0.99005352 28.03388884 -3.85400445 28.27663064 -7 28 C-10.0625 25.8125 -10.0625 25.8125 -12 23 C-12 21.68 -12 20.36 -12 19 C-10.35 18.67 -8.7 18.34 -7 18 C-6.5978125 18.9590625 -6.5978125 18.9590625 -6.1875 19.9375 C-5.11332248 22.33131686 -5.11332248 22.33131686 -2 23 C-3.05263879 19.14032442 -4.7046547 17.25976374 -7.625 14.6875 C-10.3449302 12.09789979 -11.51344519 10.54983585 -11.625 6.75 C-11 3 -11 3 -10 1 C-6.73045998 -0.63477001 -3.50936466 -0.76965945 0 0 Z " fill="#FFFFFF" transform="translate(279,42)"/>
<path d="M0 0 C2.5 2.3125 2.5 2.3125 4 5 C4 5.99 4 6.98 4 8 C2.35 8.33 0.7 8.66 -1 9 C-1.33 7.68 -1.66 6.36 -2 5 C-2.99 5.66 -3.98 6.32 -5 7 C-3.88625 8.0828125 -3.88625 8.0828125 -2.75 9.1875 C3.8948291 15.98334794 3.8948291 15.98334794 4.375 20.625 C4 24 4 24 2 27 C-0.99005352 28.03388884 -3.85400445 28.27663064 -7 28 C-10.0625 25.8125 -10.0625 25.8125 -12 23 C-12 21.68 -12 20.36 -12 19 C-10.35 18.67 -8.7 18.34 -7 18 C-6.5978125 18.9590625 -6.5978125 18.9590625 -6.1875 19.9375 C-5.11332248 22.33131686 -5.11332248 22.33131686 -2 23 C-3.05263879 19.14032442 -4.7046547 17.25976374 -7.625 14.6875 C-10.3449302 12.09789979 -11.51344519 10.54983585 -11.625 6.75 C-11 3 -11 3 -10 1 C-6.73045998 -0.63477001 -3.50936466 -0.76965945 0 0 Z " fill="#FFFFFF" transform="translate(262,42)"/>
<path d="M0 0 C5.94 0 11.88 0 18 0 C18 1.32 18 2.64 18 4 C16.02 4 14.04 4 12 4 C12 14.23 12 24.46 12 35 C10.02 35 8.04 35 6 35 C6 24.77 6 14.54 6 4 C4.02 4 2.04 4 0 4 C0 2.68 0 1.36 0 0 Z " fill="#FFF8F8" transform="translate(22,38)"/>
<path d="M0 0 C4.33333333 0 8.66666667 0 13 0 C13 1.98 13 3.96 13 6 C11.02 6 9.04 6 7 6 C6.67 12.93 6.34 19.86 6 27 C4.02 27 2.04 27 0 27 C0 18.09 0 9.18 0 0 Z " fill="#FFFFFF" transform="translate(305,42)"/>
<path d="M0 0 C4.33333333 0 8.66666667 0 13 0 C13 1.98 13 3.96 13 6 C11.02 6 9.04 6 7 6 C6.67 12.93 6.34 19.86 6 27 C4.02 27 2.04 27 0 27 C0 18.09 0 9.18 0 0 Z " fill="#FFFFFF" transform="translate(218,42)"/>
</svg>
