<svg version="1.1" id="Layer_1" xmlns="http://www.w3.org/2000/svg" xmlns:xlink="http://www.w3.org/1999/xlink" x="0px" y="0px"
	 width="100%" viewBox="0 0 338 87" enable-background="new 0 0 338 87" xml:space="preserve">
<path fill="#000000" opacity="1.000000" stroke="none" 
	d="
M85.000000,88.000000 
	C57.022697,88.000000 29.045395,88.000000 1.034046,88.000000 
	C1.034046,59.046238 1.034046,30.092428 1.034046,1.069308 
	C113.666649,1.069308 226.333313,1.069308 339.000000,1.069308 
	C339.000000,11.078887 339.000000,21.070786 338.688995,31.850189 
	C336.540771,32.771309 334.682526,32.781116 332.874908,33.088657 
	C331.913513,33.252224 330.971191,34.409069 330.139435,34.289356 
	C327.536072,33.914658 324.989380,33.146175 322.263794,32.492641 
	C322.263794,44.970863 322.263794,56.368420 322.263794,67.736008 
	C324.936829,67.736008 327.338684,67.736008 330.000458,67.736008 
	C330.000458,61.181667 330.000458,54.887497 330.000488,48.593327 
	C330.000549,40.121181 330.000549,40.121181 339.000000,40.000000 
	C339.000000,55.974693 339.000000,71.949387 339.000000,88.000000 
	C262.979126,88.000000 186.958221,88.000000 110.181381,87.691940 
	C110.474754,86.631447 111.423958,85.621094 112.589691,85.168655 
	C119.854561,82.349159 124.894577,76.842422 128.650497,70.507111 
	C134.910568,59.947865 134.243881,48.441017 130.577744,37.254642 
	C127.038666,26.455927 121.305824,23.873922 114.184822,27.961390 
	C111.818375,21.361643 109.825050,14.392385 106.809769,7.897577 
	C104.856354,3.689993 100.091393,1.917313 95.862282,3.299174 
	C93.400108,4.103687 91.323799,7.525677 90.073120,10.231767 
	C88.565292,13.494260 88.116898,17.246391 87.155762,20.997917 
	C78.546913,14.299856 78.073952,13.972164 71.861389,22.938774 
	C68.244743,28.158684 66.275734,34.565361 63.840942,40.550163 
	C57.397015,56.389545 66.968163,78.029907 82.276718,85.121773 
	C83.390007,85.637527 84.101631,87.020317 85.000000,88.000000 
M166.999451,54.495087 
	C166.999451,58.931782 166.999451,63.368473 166.999451,67.720917 
	C169.962296,67.720917 172.366119,67.720917 174.999985,67.720917 
	C174.999985,58.812962 175.431870,50.153652 174.869171,41.559460 
	C174.381424,34.110004 172.408524,31.382053 166.625671,32.258110 
	C162.074081,32.947639 158.101181,33.222664 153.452011,32.329582 
	C148.629242,31.403158 143.302200,33.101910 138.291916,33.642166 
	C138.291916,45.030197 138.291916,56.432564 138.291916,67.700493 
	C140.996643,67.700493 143.401550,67.700493 145.999405,67.700493 
	C145.999405,59.266476 145.723450,51.114555 146.197815,43.006527 
	C146.313156,41.035149 148.896896,39.208191 150.345642,37.314823 
	C151.230652,39.159672 152.816422,40.980816 152.879791,42.853462 
	C153.159409,51.119839 153.000656,59.401043 153.000656,67.784729 
	C155.513382,67.784729 157.579956,67.784729 159.999969,67.784729 
	C159.999969,59.955177 160.239563,52.324566 159.908157,44.718838 
	C159.716034,40.309464 161.402298,37.979340 166.999451,36.689823 
	C166.999451,42.545044 166.999451,48.022923 166.999451,54.495087 
M178.999374,36.684895 
	C178.999374,51.093216 178.999374,65.501541 178.999374,79.667625 
	C182.062393,79.667625 184.471695,79.667625 186.999420,79.667625 
	C186.999420,77.350044 186.999435,75.362877 186.999435,73.375710 
	C186.999435,71.391800 186.999420,69.407898 186.999420,67.352745 
	C196.578293,71.361687 200.527222,67.670021 201.510254,60.559643 
	C202.528778,53.192368 201.675598,45.458679 200.802460,37.983196 
	C200.369492,34.276028 197.237381,31.791578 193.006622,32.025646 
	C189.083542,32.242687 185.149109,32.519272 181.272812,33.115208 
	C180.401764,33.249123 179.751495,34.819138 178.999374,36.684895 
M296.891235,64.395386 
	C299.350342,69.196632 303.834412,69.258224 308.237366,68.932663 
	C312.257050,68.635452 315.622406,66.727608 315.930908,62.294498 
	C316.442322,54.946331 317.465027,47.423405 316.430420,40.239376 
	C315.468872,33.562672 312.213562,32.523151 305.882904,32.087589 
	C300.465515,31.714853 296.670258,34.501125 296.110413,40.537251 
	C295.397247,48.226582 296.164368,56.053204 296.891235,64.395386 
M225.000595,49.526306 
	C225.000504,52.516781 224.989182,55.507313 225.003098,58.497723 
	C225.021530,62.457714 226.097656,66.144913 229.881149,67.853813 
	C234.366898,69.879906 239.654266,70.173241 243.143585,66.723755 
	C245.448059,64.445595 245.619949,60.010223 246.877426,56.137989 
	C243.370590,56.137989 241.408478,56.137989 239.276703,56.137989 
	C239.104187,57.335892 239.231354,58.587864 238.723282,59.476715 
	C237.975052,60.785641 236.773926,61.835678 235.765717,62.995987 
	C234.843994,61.582180 233.411163,60.265728 233.119034,58.732006 
	C232.668854,56.368553 233.000549,53.856186 233.000549,50.883224 
	C237.888062,50.883224 242.413406,50.883224 246.795792,50.883224 
	C246.496475,47.783356 246.076294,45.214489 246.033081,42.639301 
	C245.918320,35.802299 242.518524,31.797039 236.140839,32.075954 
	C229.361206,32.372456 225.329590,34.946442 225.012863,42.570351 
	C224.930191,44.560558 225.000549,46.557133 225.000595,49.526306 
M289.359833,67.092690 
	C294.635223,62.392361 292.935974,55.500732 289.220215,51.735970 
	C286.415894,48.894623 283.382782,46.237602 280.915985,43.129868 
	C280.177582,42.199612 281.003265,40.027843 281.112366,38.424873 
	C282.425476,39.115490 283.950470,39.583183 284.985291,40.566643 
	C285.826508,41.366138 286.080017,42.784000 286.686584,44.133286 
	C288.370850,43.656601 290.043335,43.183254 292.507324,42.485882 
	C291.639221,40.330364 290.997833,38.253918 290.002167,36.364124 
	C287.776093,32.138943 282.000122,30.741421 276.880493,33.036640 
	C273.453217,34.573154 272.008759,39.467648 272.864014,43.728252 
	C273.969421,49.235020 278.689728,51.245674 281.981354,54.711777 
	C283.551086,56.364738 284.016144,59.118996 284.723358,61.452667 
	C284.789307,61.670151 282.340729,63.070385 282.156311,62.876778 
	C280.615601,61.259415 279.331879,59.397194 277.362640,56.810001 
	C276.181610,57.222771 272.495026,57.787548 272.413635,58.680870 
	C272.203522,60.986244 273.003967,63.890293 274.445282,65.742393 
	C278.403656,70.828934 283.715546,69.197235 289.359833,67.092690 
M250.022141,63.217945 
	C252.354553,68.359344 256.787048,69.339439 261.764160,68.970619 
	C265.841034,68.668495 268.484406,66.225174 269.775940,62.504658 
	C271.402435,57.819183 268.299683,51.888660 263.005402,47.922329 
	C260.524445,46.063652 258.625122,43.428562 256.392761,41.072037 
	C257.957306,39.587955 258.891205,38.702110 259.767822,37.870575 
	C263.312561,38.810287 262.889862,47.391495 269.504395,41.772896 
	C267.958130,39.028870 266.875763,35.579849 264.578430,33.427818 
	C261.860504,30.881800 254.360245,32.177460 252.037872,34.737438 
	C249.223434,37.839825 248.979691,43.543564 251.964539,47.313862 
	C254.144089,50.066963 257.091095,52.207623 259.314636,54.932472 
	C260.850616,56.814739 261.768097,59.213402 262.786346,61.460865 
	C262.824524,61.545109 260.479279,63.142056 260.156708,62.885849 
	C258.227814,61.353821 256.566681,59.484650 254.160217,57.071053 
	C253.315033,57.272827 251.312927,57.750805 248.775589,58.356556 
	C249.177765,59.799774 249.543411,61.111961 250.022141,63.217945 
M20.966917,37.823368 
	C16.722471,29.306519 9.247659,34.466793 3.283802,32.894859 
	C3.283802,44.697395 3.283802,55.767933 3.283802,67.046066 
	C5.321424,66.950920 7.059218,66.869774 9.121121,66.773491 
	C9.121121,61.313869 9.121121,56.216282 9.121121,51.118694 
	C10.755232,51.384293 11.655483,52.066849 11.947856,52.950527 
	C12.955597,55.996353 14.005689,59.066952 14.567171,62.212460 
	C15.389309,66.818199 17.794672,67.958290 22.156122,66.449768 
	C20.955862,62.256332 19.695131,58.278179 18.724810,54.230408 
	C18.384789,52.811985 18.138681,50.642063 18.915113,49.812515 
	C22.096411,46.413589 21.438374,42.558765 20.966917,37.823368 
M45.798183,66.976242 
	C49.542515,66.807716 54.164379,67.941742 56.817890,66.154068 
	C60.460747,63.699871 60.767063,58.677929 59.647404,54.300919 
	C57.637192,54.300919 55.889133,54.300919 53.987728,54.300919 
	C53.987728,56.252945 54.403412,58.060333 53.866432,59.516384 
	C53.366909,60.870869 51.689861,62.893456 50.821766,62.758125 
	C49.427189,62.540714 47.249405,60.843605 47.185448,59.674252 
	C46.831539,53.203217 46.831890,46.692387 47.191776,40.221939 
	C47.255047,39.084351 49.515118,37.422901 50.919083,37.243565 
	C51.788067,37.132565 53.419098,39.211605 53.868725,40.582764 
	C54.389603,42.171219 53.990017,44.061508 53.990017,45.705696 
	C56.346783,45.705696 58.085243,45.705696 59.999390,45.705696 
	C59.999390,44.099144 60.019653,42.781662 59.995880,41.464973 
	C59.892700,35.750183 56.398209,32.182716 50.741547,32.000870 
	C45.001560,31.816349 41.076447,35.588940 41.013844,41.480503 
	C40.951958,47.304676 40.587128,53.172867 41.184612,58.935760 
	C41.459988,61.591850 43.712803,64.042923 45.798183,66.976242 
M213.999725,56.496559 
	C213.999756,53.001991 214.036163,49.506943 213.989639,46.012993 
	C213.942383,42.463947 215.793015,40.576626 219.142853,40.020504 
	C220.367188,39.817249 221.628540,39.836926 222.727066,39.764519 
	C222.727066,36.939548 222.727066,34.522854 222.727066,31.223694 
	C219.514832,32.612862 216.856720,33.762394 214.266205,34.882687 
	C213.061813,30.840429 209.742371,33.734940 207.290390,33.184818 
	C207.290390,45.033878 207.290390,56.437164 207.290390,67.703445 
	C209.653503,67.703445 211.720963,67.703445 213.999725,67.703445 
	C213.999725,64.100777 213.999725,60.792698 213.999725,56.496559 
M29.551111,33.000023 
	C28.051384,33.000065 26.538929,33.125393 25.054520,32.974613 
	C21.744886,32.638439 21.519253,34.241707 22.508575,37.133411 
	C24.260998,37.133411 25.999838,37.133411 28.128468,37.133411 
	C28.128468,47.281651 28.128468,57.040295 28.128468,66.722084 
	C30.273710,66.722084 32.010181,66.722084 34.136429,66.722084 
	C34.136429,56.689613 34.136429,46.927841 34.136429,37.189060 
	C36.300358,37.021706 38.067490,36.885036 39.722839,36.757015 
	C39.722839,35.377689 39.722839,34.310722 39.722839,33.000023 
	C36.477089,33.000023 33.495430,33.000023 29.551111,33.000023 
z"/>
<path fill="#E58F0F" opacity="1.000000" stroke="none" 
	d="
M85.468651,88.000000 
	C84.101631,87.020317 83.390007,85.637527 82.276718,85.121773 
	C66.968163,78.029907 57.397015,56.389545 63.840942,40.550163 
	C66.275734,34.565361 68.244743,28.158684 71.861389,22.938774 
	C78.073952,13.972164 78.546913,14.299856 87.155762,20.997917 
	C88.116898,17.246391 88.565292,13.494260 90.073120,10.231767 
	C91.323799,7.525677 93.400108,4.103687 95.862282,3.299174 
	C100.091393,1.917313 104.856354,3.689993 106.809769,7.897577 
	C109.825050,14.392385 111.818375,21.361643 114.184822,27.961390 
	C121.305824,23.873922 127.038666,26.455927 130.577744,37.254642 
	C134.243881,48.441017 134.910568,59.947865 128.650497,70.507111 
	C124.894577,76.842422 119.854561,82.349159 112.589691,85.168655 
	C111.423958,85.621094 110.474754,86.631447 109.712723,87.691940 
	C101.979103,88.000000 93.958199,88.000000 85.468651,88.000000 
M113.669197,58.190147 
	C114.316826,62.616333 114.964462,67.042519 115.615913,71.494812 
	C125.193916,65.280739 127.000313,45.469913 118.942101,36.783096 
	C117.317955,37.999268 115.672829,39.292854 113.965302,40.498016 
	C109.128746,43.911598 104.601181,41.923424 104.045036,36.050831 
	C103.810722,33.576553 104.295021,31.019377 103.939713,28.574429 
	C103.149994,23.140318 102.573151,17.562450 98.683174,12.353512 
	C97.648842,17.157108 97.323578,21.309038 95.784210,24.947273 
	C94.636101,27.660761 92.304413,30.300156 89.816277,31.927347 
	C85.238823,34.920895 82.514038,30.548849 79.148697,27.972210 
	C73.771469,37.830433 69.012161,47.793835 72.222404,59.090492 
	C73.486534,63.538883 73.583977,69.622513 79.539078,71.399521 
	C80.049797,66.527130 80.139999,61.709709 81.138359,57.088482 
	C82.562782,50.495083 85.661255,49.148136 91.227196,51.939392 
	C91.482605,52.067471 91.878876,51.914669 92.598747,51.866814 
	C93.183029,49.695900 93.546684,47.288067 94.502983,45.144653 
	C95.198288,43.586246 96.676880,42.377304 97.806236,41.012554 
	C99.218338,42.326317 101.333725,43.391983 101.902161,45.003365 
	C103.256805,48.843418 103.880829,52.941216 104.891014,57.330463 
	C107.965446,54.351360 110.921104,51.752773 113.669197,58.190147 
M92.053680,76.559746 
	C95.879204,76.970490 99.815430,78.125450 103.498383,77.577660 
	C107.013870,77.054779 108.614540,66.285820 105.603081,65.778587 
	C100.336716,64.891556 101.237564,61.125492 99.297272,57.594997 
	C98.130196,59.604481 96.963127,61.613964 95.735031,63.728504 
	C94.918091,63.246056 94.107330,62.767258 93.305481,62.293720 
	C89.502632,66.455956 89.109253,71.018242 92.053680,76.559746 
z"/>
<path fill="#F6F6F6" opacity="1.000000" stroke="none" 
	d="
M339.000000,39.555836 
	C330.000549,40.121181 330.000549,40.121181 330.000488,48.593327 
	C330.000458,54.887497 330.000458,61.181667 330.000458,67.736008 
	C327.338684,67.736008 324.936829,67.736008 322.263794,67.736008 
	C322.263794,56.368420 322.263794,44.970863 322.263794,32.492641 
	C324.989380,33.146175 327.536072,33.914658 330.139435,34.289356 
	C330.971191,34.409069 331.913513,33.252224 332.874908,33.088657 
	C334.682526,32.781116 336.540771,32.771309 338.688995,32.318848 
	C339.000000,34.370556 339.000000,36.741116 339.000000,39.555836 
z"/>
<path fill="#F6F6F6" opacity="1.000000" stroke="none" 
	d="
M166.999451,53.997944 
	C166.999451,48.022923 166.999451,42.545044 166.999451,36.689823 
	C161.402298,37.979340 159.716034,40.309464 159.908157,44.718838 
	C160.239563,52.324566 159.999969,59.955177 159.999969,67.784729 
	C157.579956,67.784729 155.513382,67.784729 153.000656,67.784729 
	C153.000656,59.401043 153.159409,51.119839 152.879791,42.853462 
	C152.816422,40.980816 151.230652,39.159672 150.345642,37.314823 
	C148.896896,39.208191 146.313156,41.035149 146.197815,43.006527 
	C145.723450,51.114555 145.999405,59.266476 145.999405,67.700493 
	C143.401550,67.700493 140.996643,67.700493 138.291916,67.700493 
	C138.291916,56.432564 138.291916,45.030197 138.291916,33.642166 
	C143.302200,33.101910 148.629242,31.403158 153.452011,32.329582 
	C158.101181,33.222664 162.074081,32.947639 166.625671,32.258110 
	C172.408524,31.382053 174.381424,34.110004 174.869171,41.559460 
	C175.431870,50.153652 174.999985,58.812962 174.999985,67.720917 
	C172.366119,67.720917 169.962296,67.720917 166.999451,67.720917 
	C166.999451,63.368473 166.999451,58.931782 166.999451,53.997944 
z"/>
<path fill="#F6F6F6" opacity="1.000000" stroke="none" 
	d="
M178.999481,36.206467 
	C179.751495,34.819138 180.401764,33.249123 181.272812,33.115208 
	C185.149109,32.519272 189.083542,32.242687 193.006622,32.025646 
	C197.237381,31.791578 200.369492,34.276028 200.802460,37.983196 
	C201.675598,45.458679 202.528778,53.192368 201.510254,60.559643 
	C200.527222,67.670021 196.578293,71.361687 186.999420,67.352745 
	C186.999420,69.407898 186.999435,71.391800 186.999435,73.375710 
	C186.999435,75.362877 186.999420,77.350044 186.999420,79.667625 
	C184.471695,79.667625 182.062393,79.667625 178.999374,79.667625 
	C178.999374,65.501541 178.999374,51.093216 178.999481,36.206467 
M192.992325,39.906551 
	C191.883926,39.513866 190.425110,38.490692 189.745026,38.868671 
	C188.574524,39.519199 187.176697,41.009438 187.121094,42.205212 
	C186.852646,47.979904 186.825378,53.783573 187.143433,59.553215 
	C187.209290,60.747768 189.231110,62.856342 190.131073,62.746021 
	C191.516129,62.576241 193.791031,60.868988 193.808105,59.784424 
	C193.908020,53.437069 193.460861,47.081097 192.992325,39.906551 
z"/>
<path fill="#F6F6F6" opacity="1.000000" stroke="none" 
	d="
M296.592285,64.108017 
	C296.164368,56.053204 295.397247,48.226582 296.110413,40.537251 
	C296.670258,34.501125 300.465515,31.714853 305.882904,32.087589 
	C312.213562,32.523151 315.468872,33.562672 316.430420,40.239376 
	C317.465027,47.423405 316.442322,54.946331 315.930908,62.294498 
	C315.622406,66.727608 312.257050,68.635452 308.237366,68.932663 
	C303.834412,69.258224 299.350342,69.196632 296.592285,64.108017 
M306.437714,62.995533 
	C306.880157,62.836140 307.705444,62.687069 307.710083,62.515869 
	C307.915283,54.907639 308.504669,47.266281 307.987885,39.701305 
	C307.747070,36.175831 305.303406,38.008125 304.085022,39.759403 
	C302.151550,42.538479 302.620239,60.138893 304.623352,62.843334 
	C304.758667,63.026024 305.242218,62.950752 306.437714,62.995533 
z"/>
<path fill="#F6F6F6" opacity="1.000000" stroke="none" 
	d="
M225.000595,49.038544 
	C225.000549,46.557133 224.930191,44.560558 225.012863,42.570351 
	C225.329590,34.946442 229.361206,32.372456 236.140839,32.075954 
	C242.518524,31.797039 245.918320,35.802299 246.033081,42.639301 
	C246.076294,45.214489 246.496475,47.783356 246.795792,50.883224 
	C242.413406,50.883224 237.888062,50.883224 233.000549,50.883224 
	C233.000549,53.856186 232.668854,56.368553 233.119034,58.732006 
	C233.411163,60.265728 234.843994,61.582180 235.765717,62.995987 
	C236.773926,61.835678 237.975052,60.785641 238.723282,59.476715 
	C239.231354,58.587864 239.104187,57.335892 239.276703,56.137989 
	C241.408478,56.137989 243.370590,56.137989 246.877426,56.137989 
	C245.619949,60.010223 245.448059,64.445595 243.143585,66.723755 
	C239.654266,70.173241 234.366898,69.879906 229.881149,67.853813 
	C226.097656,66.144913 225.021530,62.457714 225.003098,58.497723 
	C224.989182,55.507313 225.000504,52.516781 225.000595,49.038544 
M238.994293,45.503960 
	C238.997940,42.418137 239.343307,38.970901 235.313156,38.338768 
	C234.911865,38.275822 233.739105,42.785831 233.046112,45.208260 
	C232.900497,45.717232 233.290695,46.379486 233.504639,47.262707 
	C235.462784,46.949207 237.196503,46.671638 238.994293,45.503960 
z"/>
<path fill="#F6F6F6" opacity="1.000000" stroke="none" 
	d="
M289.088989,67.400513 
	C283.715546,69.197235 278.403656,70.828934 274.445282,65.742393 
	C273.003967,63.890293 272.203522,60.986244 272.413635,58.680870 
	C272.495026,57.787548 276.181610,57.222771 277.362640,56.810001 
	C279.331879,59.397194 280.615601,61.259415 282.156311,62.876778 
	C282.340729,63.070385 284.789307,61.670151 284.723358,61.452667 
	C284.016144,59.118996 283.551086,56.364738 281.981354,54.711777 
	C278.689728,51.245674 273.969421,49.235020 272.864014,43.728252 
	C272.008759,39.467648 273.453217,34.573154 276.880493,33.036640 
	C282.000122,30.741421 287.776093,32.138943 290.002167,36.364124 
	C290.997833,38.253918 291.639221,40.330364 292.507324,42.485882 
	C290.043335,43.183254 288.370850,43.656601 286.686584,44.133286 
	C286.080017,42.784000 285.826508,41.366138 284.985291,40.566643 
	C283.950470,39.583183 282.425476,39.115490 281.112366,38.424873 
	C281.003265,40.027843 280.177582,42.199612 280.915985,43.129868 
	C283.382782,46.237602 286.415894,48.894623 289.220215,51.735970 
	C292.935974,55.500732 294.635223,62.392361 289.088989,67.400513 
z"/>
<path fill="#F6F6F6" opacity="1.000000" stroke="none" 
	d="
M249.965607,62.821045 
	C249.543411,61.111961 249.177765,59.799774 248.775589,58.356556 
	C251.312927,57.750805 253.315033,57.272827 254.160217,57.071053 
	C256.566681,59.484650 258.227814,61.353821 260.156708,62.885849 
	C260.479279,63.142056 262.824524,61.545109 262.786346,61.460865 
	C261.768097,59.213402 260.850616,56.814739 259.314636,54.932472 
	C257.091095,52.207623 254.144089,50.066963 251.964539,47.313862 
	C248.979691,43.543564 249.223434,37.839825 252.037872,34.737438 
	C254.360245,32.177460 261.860504,30.881800 264.578430,33.427818 
	C266.875763,35.579849 267.958130,39.028870 269.504395,41.772896 
	C262.889862,47.391495 263.312561,38.810287 259.767822,37.870575 
	C258.891205,38.702110 257.957306,39.587955 256.392761,41.072037 
	C258.625122,43.428562 260.524445,46.063652 263.005402,47.922329 
	C268.299683,51.888660 271.402435,57.819183 269.775940,62.504658 
	C268.484406,66.225174 265.841034,68.668495 261.764160,68.970619 
	C256.787048,69.339439 252.354553,68.359344 249.965607,62.821045 
z"/>
<path fill="#E8E8E8" opacity="1.000000" stroke="none" 
	d="
M20.982138,38.229263 
	C21.438374,42.558765 22.096411,46.413589 18.915113,49.812515 
	C18.138681,50.642063 18.384789,52.811985 18.724810,54.230408 
	C19.695131,58.278179 20.955862,62.256332 22.156122,66.449768 
	C17.794672,67.958290 15.389309,66.818199 14.567171,62.212460 
	C14.005689,59.066952 12.955597,55.996353 11.947856,52.950527 
	C11.655483,52.066849 10.755232,51.384293 9.121121,51.118694 
	C9.121121,56.216282 9.121121,61.313869 9.121121,66.773491 
	C7.059218,66.869774 5.321424,66.950920 3.283802,67.046066 
	C3.283802,55.767933 3.283802,44.697395 3.283802,32.894859 
	C9.247659,34.466793 16.722471,29.306519 20.982138,38.229263 
M14.997151,39.790638 
	C13.332659,38.623688 11.668165,37.456738 9.203788,35.729000 
	C9.203788,40.508221 9.203788,43.610146 9.203788,46.652256 
	C15.241543,48.378647 15.266402,44.662827 14.997151,39.790638 
z"/>
<path fill="#E8E8E8" opacity="1.000000" stroke="none" 
	d="
M45.433594,66.781601 
	C43.712803,64.042923 41.459988,61.591850 41.184612,58.935760 
	C40.587128,53.172867 40.951958,47.304676 41.013844,41.480503 
	C41.076447,35.588940 45.001560,31.816349 50.741547,32.000870 
	C56.398209,32.182716 59.892700,35.750183 59.995880,41.464973 
	C60.019653,42.781662 59.999390,44.099144 59.999390,45.705696 
	C58.085243,45.705696 56.346783,45.705696 53.990017,45.705696 
	C53.990017,44.061508 54.389603,42.171219 53.868725,40.582764 
	C53.419098,39.211605 51.788067,37.132565 50.919083,37.243565 
	C49.515118,37.422901 47.255047,39.084351 47.191776,40.221939 
	C46.831890,46.692387 46.831539,53.203217 47.185448,59.674252 
	C47.249405,60.843605 49.427189,62.540714 50.821766,62.758125 
	C51.689861,62.893456 53.366909,60.870869 53.866432,59.516384 
	C54.403412,58.060333 53.987728,56.252945 53.987728,54.300919 
	C55.889133,54.300919 57.637192,54.300919 59.647404,54.300919 
	C60.767063,58.677929 60.460747,63.699871 56.817890,66.154068 
	C54.164379,67.941742 49.542515,66.807716 45.433594,66.781601 
z"/>
<path fill="#F6F6F6" opacity="1.000000" stroke="none" 
	d="
M213.999725,56.990589 
	C213.999725,60.792698 213.999725,64.100777 213.999725,67.703445 
	C211.720963,67.703445 209.653503,67.703445 207.290390,67.703445 
	C207.290390,56.437164 207.290390,45.033878 207.290390,33.184818 
	C209.742371,33.734940 213.061813,30.840429 214.266205,34.882687 
	C216.856720,33.762394 219.514832,32.612862 222.727066,31.223694 
	C222.727066,34.522854 222.727066,36.939548 222.727066,39.764519 
	C221.628540,39.836926 220.367188,39.817249 219.142853,40.020504 
	C215.793015,40.576626 213.942383,42.463947 213.989639,46.012993 
	C214.036163,49.506943 213.999756,53.001991 213.999725,56.990589 
z"/>
<path fill="#E8E8E8" opacity="1.000000" stroke="none" 
	d="
M30.032444,33.000023 
	C33.495430,33.000023 36.477089,33.000023 39.722839,33.000023 
	C39.722839,34.310722 39.722839,35.377689 39.722839,36.757015 
	C38.067490,36.885036 36.300358,37.021706 34.136429,37.189060 
	C34.136429,46.927841 34.136429,56.689613 34.136429,66.722084 
	C32.010181,66.722084 30.273710,66.722084 28.128468,66.722084 
	C28.128468,57.040295 28.128468,47.281651 28.128468,37.133411 
	C25.999838,37.133411 24.260998,37.133411 22.508575,37.133411 
	C21.519253,34.241707 21.744886,32.638439 25.054520,32.974613 
	C26.538929,33.125393 28.051384,33.000065 30.032444,33.000023 
z"/>
<path fill="#000000" opacity="1.000000" stroke="none" 
	d="
M113.404053,57.888527 
	C110.921104,51.752773 107.965446,54.351360 104.891014,57.330463 
	C103.880829,52.941216 103.256805,48.843418 101.902161,45.003365 
	C101.333725,43.391983 99.218338,42.326317 97.806236,41.012554 
	C96.676880,42.377304 95.198288,43.586246 94.502983,45.144653 
	C93.546684,47.288067 93.183029,49.695900 92.598747,51.866814 
	C91.878876,51.914669 91.482605,52.067471 91.227196,51.939392 
	C85.661255,49.148136 82.562782,50.495083 81.138359,57.088482 
	C80.139999,61.709709 80.049797,66.527130 79.539078,71.399521 
	C73.583977,69.622513 73.486534,63.538883 72.222404,59.090492 
	C69.012161,47.793835 73.771469,37.830433 79.148697,27.972210 
	C82.514038,30.548849 85.238823,34.920895 89.816277,31.927347 
	C92.304413,30.300156 94.636101,27.660761 95.784210,24.947273 
	C97.323578,21.309038 97.648842,17.157108 98.683174,12.353512 
	C102.573151,17.562450 103.149994,23.140318 103.939713,28.574429 
	C104.295021,31.019377 103.810722,33.576553 104.045036,36.050831 
	C104.601181,41.923424 109.128746,43.911598 113.965302,40.498016 
	C115.672829,39.292854 117.317955,37.999268 118.942101,36.783096 
	C127.000313,45.469913 125.193916,65.280739 115.615913,71.494812 
	C114.964462,67.042519 114.316826,62.616333 113.404053,57.888527 
z"/>
<path fill="#000000" opacity="1.000000" stroke="none" 
	d="
M91.764282,76.251862 
	C89.109253,71.018242 89.502632,66.455956 93.305481,62.293720 
	C94.107330,62.767258 94.918091,63.246056 95.735031,63.728504 
	C96.963127,61.613964 98.130196,59.604481 99.297272,57.594997 
	C101.237564,61.125492 100.336716,64.891556 105.603081,65.778587 
	C108.614540,66.285820 107.013870,77.054779 103.498383,77.577660 
	C99.815430,78.125450 95.879204,76.970490 91.764282,76.251862 
z"/>
<path fill="#000000" opacity="1.000000" stroke="none" 
	d="
M193.095306,40.317291 
	C193.460861,47.081097 193.908020,53.437069 193.808105,59.784424 
	C193.791031,60.868988 191.516129,62.576241 190.131073,62.746021 
	C189.231110,62.856342 187.209290,60.747768 187.143433,59.553215 
	C186.825378,53.783573 186.852646,47.979904 187.121094,42.205212 
	C187.176697,41.009438 188.574524,39.519199 189.745026,38.868671 
	C190.425110,38.490692 191.883926,39.513866 193.095306,40.317291 
z"/>
<path fill="#000000" opacity="1.000000" stroke="none" 
	d="
M306.000763,62.995499 
	C305.242218,62.950752 304.758667,63.026024 304.623352,62.843334 
	C302.620239,60.138893 302.151550,42.538479 304.085022,39.759403 
	C305.303406,38.008125 307.747070,36.175831 307.987885,39.701305 
	C308.504669,47.266281 307.915283,54.907639 307.710083,62.515869 
	C307.705444,62.687069 306.880157,62.836140 306.000763,62.995499 
z"/>
<path fill="#000000" opacity="1.000000" stroke="none" 
	d="
M238.962265,45.949017 
	C237.196503,46.671638 235.462784,46.949207 233.504639,47.262707 
	C233.290695,46.379486 232.900497,45.717232 233.046112,45.208260 
	C233.739105,42.785831 234.911865,38.275822 235.313156,38.338768 
	C239.343307,38.970901 238.997940,42.418137 238.962265,45.949017 
z"/>
<path fill="#000000" opacity="1.000000" stroke="none" 
	d="
M14.998577,40.233810 
	C15.266402,44.662827 15.241543,48.378647 9.203788,46.652256 
	C9.203788,43.610146 9.203788,40.508221 9.203788,35.729000 
	C11.668165,37.456738 13.332659,38.623688 14.998577,40.233810 
z"/>
</svg>