<?xml version="1.0" encoding="UTF-8"?>
<svg version="1.1" xmlns="http://www.w3.org/2000/svg" width="341" height="95">
<path d="M0 0 C4.09354542 0.89546306 6.58767023 3.22198096 9.125 6.46484375 C12.66085241 12.95857269 14.33586931 20.33542901 16.125 27.46484375 C17.115 26.80484375 18.105 26.14484375 19.125 25.46484375 C21.875 24.83984375 21.875 24.83984375 25.125 25.46484375 C32.62045469 31.28923387 35.61574734 40.39495394 37.125 49.46484375 C38.01941819 62.02829926 35.08819356 72.09620115 26.875 81.65234375 C21.83397278 87.05938615 16.12411 92.07260377 8.46459961 92.67358398 C4.99722925 92.78221321 1.53116133 92.84909273 -1.9375 92.90234375 C-3.12794922 92.94810547 -4.31839844 92.99386719 -5.54492188 93.04101562 C-15.53663481 93.16735394 -20.94406321 90.3247449 -28.64453125 84.296875 C-37.16245494 75.87667127 -41.07665437 66.54785448 -41.25 54.65234375 C-41.32569392 40.57781622 -36.22353645 27.34666161 -26.8125 16.77734375 C-23.875 14.46484375 -23.875 14.46484375 -21.375 14.27734375 C-18.00428304 15.87843431 -15.63991922 17.95712632 -12.875 20.46484375 C-12.83761719 19.90796875 -12.80023438 19.35109375 -12.76171875 18.77734375 C-12.2437935 12.76534867 -11.42688785 6.62189357 -7.5078125 1.7734375 C-5.17091937 -0.0994314 -2.92086504 -0.13423093 0 0 Z M-0.875 11.46484375 C-1.20113281 12.5734375 -1.52726562 13.68203125 -1.86328125 14.82421875 C-2.304259 16.28788958 -2.74568908 17.75142419 -3.1875 19.21484375 C-3.40083984 19.94445313 -3.61417969 20.6740625 -3.83398438 21.42578125 C-5.00350647 25.26600305 -6.03634334 28.49852264 -8.875 31.46484375 C-11.1875 32.40234375 -11.1875 32.40234375 -13.875 32.46484375 C-15.89917134 31.51472251 -17.90083732 30.51493028 -19.875 29.46484375 C-21.195 29.46484375 -22.515 29.46484375 -23.875 29.46484375 C-29.21165377 40.72884961 -33.50080658 51.54355295 -30.15234375 64.1953125 C-28.18778911 68.94364903 -25.60479968 71.89586462 -21.875 75.46484375 C-21.77703125 74.47484375 -21.6790625 73.48484375 -21.578125 72.46484375 C-20.77214432 65.10957199 -19.80622433 58.88584349 -15.875 52.46484375 C-12.10812136 52.46484375 -10.96309695 52.70021692 -7.875 54.46484375 C-7.67003906 53.84996094 -7.46507813 53.23507813 -7.25390625 52.6015625 C-6.12760417 49.22265625 -5.00130208 45.84375 -3.875 42.46484375 C0.72877358 43.79751505 0.72877358 43.79751505 2.3125 46.46484375 C3.47481206 50.75645751 4.32690869 55.0923222 5.125 59.46484375 C5.723125 59.13484375 6.32125 58.80484375 6.9375 58.46484375 C9.125 57.46484375 9.125 57.46484375 12.125 57.46484375 C16.30481006 64.2570351 16.5981614 69.57882033 16.125 77.46484375 C22.02798366 73.75439688 25.14022006 67.53937074 26.75 60.87890625 C28.03830838 52.58542107 26.82755458 44.51867562 22.125 37.46484375 C19.45367456 38.42948905 17.34150113 39.28893658 15.125 41.08984375 C12.59737457 42.82758624 11.13352232 42.86070195 8.125 42.46484375 C5.80853775 40.1483815 5.83167279 39.57274173 5.59765625 36.4296875 C5.52740234 35.61951172 5.45714844 34.80933594 5.38476562 33.97460938 C5.25536269 32.28724636 5.12769881 30.59974888 5.00195312 28.91210938 C4.50275418 23.19605664 3.60544792 17.69572538 1.125 12.46484375 C0.465 12.13484375 -0.195 11.80484375 -0.875 11.46484375 Z M-1.875 60.46484375 C-2.205 62.44484375 -2.535 64.42484375 -2.875 66.46484375 C-4.525 66.13484375 -6.175 65.80484375 -7.875 65.46484375 C-10.26330005 69.64436884 -11.59494413 72.63093314 -10.875 77.46484375 C-9.73854094 80.53259216 -9.73854094 80.53259216 -6.875 82.46484375 C-3.08436765 83.17810386 0.3337871 83.17246012 4.125 82.46484375 C7.00756657 80.59137749 7.00756657 80.59137749 8.125 77.46484375 C8.5450824 72.80455948 8.5450824 72.80455948 7.125 68.46484375 C5.805 68.79484375 4.485 69.12484375 3.125 69.46484375 C2.135 66.49484375 1.145 63.52484375 0.125 60.46484375 C-0.535 60.46484375 -1.195 60.46484375 -1.875 60.46484375 Z " fill="#E48E0E" transform="translate(104.875,1.53515625)"/>
<path d="M0 0 C0 0.66 0 1.32 0 2 C1.03125 1.484375 2.0625 0.96875 3.125 0.4375 C6.77211068 -1.10550836 9.17305159 -1.3916176 13 0 C16.04925829 3.93796874 16.35779131 6.9271241 16.29296875 11.83203125 C16.2784668 13.77045898 16.2784668 13.77045898 16.26367188 15.74804688 C16.23860985 17.1028707 16.21321506 18.45768841 16.1875 19.8125 C16.17244013 21.18683445 16.15875401 22.56118468 16.14648438 23.93554688 C16.11116628 27.29076632 16.06183851 30.64518166 16 34 C13.36 34 10.72 34 8 34 C7.67 24.43 7.34 14.86 7 5 C5.35 5.33 3.7 5.66 2 6 C2 15.24 2 24.48 2 34 C-0.31 34 -2.62 34 -5 34 C-5.01981934 33.19256348 -5.03963867 32.38512695 -5.06005859 31.55322266 C-5.15505899 27.91014125 -5.26483912 24.26765314 -5.375 20.625 C-5.4059375 19.35398437 -5.436875 18.08296875 -5.46875 16.7734375 C-5.50742188 15.56171875 -5.54609375 14.35 -5.5859375 13.1015625 C-5.63306885 11.42054443 -5.63306885 11.42054443 -5.68115234 9.70556641 C-5.73411203 6.85289588 -5.73411203 6.85289588 -8 5 C-9.32 5.33 -10.64 5.66 -12 6 C-12 15.24 -12 24.48 -12 34 C-14.31 34 -16.62 34 -19 34 C-19 22.78 -19 11.56 -19 0 C-16.03 0 -13.06 0 -10 0 C-6.30581799 -1.231394 -3.7943739 -0.64432764 0 0 Z " fill="#F6F6F6" transform="translate(166,38)"/>
<path d="M0 0 C4.72394363 4.88683824 4.21360054 10.44714483 4.25 16.8125 C4.270625 17.70259766 4.29125 18.59269531 4.3125 19.50976562 C4.34359781 24.75363434 4.01934078 28.50626151 1 33 C-2.45662331 35.30441554 -3.94857881 35.25860135 -8 35 C-8.66 34.67 -9.32 34.34 -10 34 C-10 37.63 -10 41.26 -10 45 C-12.64 45 -15.28 45 -18 45 C-18 30.15 -18 15.3 -18 0 C-15.03 0 -12.06 0 -9 0 C-5.4314543 -1.18951523 -3.60804584 -0.97717908 0 0 Z M-8 5 C-10.20595109 6.78654061 -10.20595109 6.78654061 -10.22705078 9.15478516 C-10.21657715 10.02409668 -10.20610352 10.8934082 -10.1953125 11.7890625 C-10.18886719 12.73007812 -10.18242187 13.67109375 -10.17578125 14.640625 C-10.15902344 15.62546875 -10.14226562 16.6103125 -10.125 17.625 C-10.11597656 18.61757813 -10.10695312 19.61015625 -10.09765625 20.6328125 C-10.07404116 23.08878134 -10.04110799 25.54427168 -10 28 C-8.34385343 28.38218767 -6.67542976 28.71395102 -5 29 C-3.77215191 27.99440206 -3.77215191 27.99440206 -3.88647461 25.95874023 C-3.89171143 25.08419189 -3.89694824 24.20964355 -3.90234375 23.30859375 C-3.90556641 22.36435547 -3.90878906 21.42011719 -3.91210938 20.44726562 C-3.92048828 19.45404297 -3.92886719 18.46082031 -3.9375 17.4375 C-3.94201172 16.44041016 -3.94652344 15.44332031 -3.95117188 14.41601562 C-3.96299993 11.94395151 -3.97948151 9.47200482 -4 7 C-5.32 6.34 -6.64 5.68 -8 5 Z " fill="#F6F6F6" transform="translate(204,38)"/>
<path d="M0 0 C3.23780779 4.85671169 2.19113608 11.13206967 2.125 16.6875 C-2.165 16.6875 -6.455 16.6875 -10.875 16.6875 C-10.545 19.9875 -10.215 23.2875 -9.875 26.6875 C-8.885 26.6875 -7.895 26.6875 -6.875 26.6875 C-6.545 24.7075 -6.215 22.7275 -5.875 20.6875 C-3.235 20.6875 -0.595 20.6875 2.125 20.6875 C1.93717902 28.6784291 1.93717902 28.6784291 -0.9375 32.25 C-4.75716355 34.11919706 -7.70051724 34.38043034 -11.875 33.6875 C-14.92137607 32.42921423 -16.37873234 31.57555792 -17.98828125 28.6953125 C-19.26360636 24.36931984 -19.20383874 20.23661852 -19.1875 15.75 C-19.21166992 14.42838867 -19.21166992 14.42838867 -19.23632812 13.08007812 C-19.24020797 7.90048944 -18.89549237 4.10260486 -15.875 -0.3125 C-10.67007203 -2.61467968 -4.90720345 -3.43504242 0 0 Z M-9.875 3.6875 C-11.3533226 6.64414519 -10.93532783 9.42979737 -10.875 12.6875 C-9.225 12.6875 -7.575 12.6875 -5.875 12.6875 C-5.875 10.0475 -5.875 7.4075 -5.875 4.6875 C-7.195 4.3575 -8.515 4.0275 -9.875 3.6875 Z " fill="#F6F6F6" transform="translate(248.875,39.3125)"/>
<path d="M0 0 C3.22317092 4.65569133 2.38762054 10.58641607 2.4375 16 C2.46650391 17.0415625 2.49550781 18.083125 2.52539062 19.15625 C2.58933715 26.84950909 2.58933715 26.84950909 0.23046875 30.7890625 C-3.10003171 33.69320947 -5.41558245 33.91210936 -9.83984375 33.83984375 C-12.85291241 33.52176548 -14.58298855 32.57995094 -16.875 30.625 C-19.41048143 26.00775486 -19.20733872 21.3763248 -19.1875 16.25 C-19.20361328 15.425 -19.21972656 14.6 -19.23632812 13.75 C-19.24065134 8.3027444 -18.56325651 4.40273662 -15.875 -0.375 C-10.73752739 -2.74614121 -4.80944162 -3.52692385 0 0 Z M-9.875 3.625 C-11.1013757 6.07775141 -10.98915314 7.6755781 -10.97265625 10.4140625 C-10.96943359 11.35507812 -10.96621094 12.29609375 -10.96289062 13.265625 C-10.95451172 14.25046875 -10.94613281 15.2353125 -10.9375 16.25 C-10.93298828 17.24257813 -10.92847656 18.23515625 -10.92382812 19.2578125 C-10.91202145 21.7136016 -10.895554 24.16927104 -10.875 26.625 C-9.555 26.955 -8.235 27.285 -6.875 27.625 C-4.91342616 23.51503576 -4.6054589 20.15853543 -4.625 15.625 C-4.61984375 14.42875 -4.6146875 13.2325 -4.609375 12 C-4.86382799 8.76695026 -5.48812878 6.53082541 -6.875 3.625 C-7.865 3.625 -8.855 3.625 -9.875 3.625 Z " fill="#F6F6F6" transform="translate(316.875,39.375)"/>
<path d="M0 0 C14 0 14 0 18 3 C19.17280718 8.19386037 19.35573338 11.15765916 17 16 C15.88737152 19.91724229 16.11984006 22.29500178 17.4375 26.125 C18.41599488 29.01221808 19 30.92617046 19 34 C17.02 34 15.04 34 13 34 C12.32815382 31.89748139 11.66269032 29.79292237 11 27.6875 C10.443125 25.92986328 10.443125 25.92986328 9.875 24.13671875 C9 21 9 21 9 18 C8.01 18 7.02 18 6 18 C6 23.28 6 28.56 6 34 C4.02 34 2.04 34 0 34 C0 22.78 0 11.56 0 0 Z M6 4 C6 7.3 6 10.6 6 14 C7.65 14 9.3 14 11 14 C12.19695276 13.02089415 12.19695276 13.02089415 12.1328125 11.1875 C12.13023438 10.465625 12.12765625 9.74375 12.125 9 C12.12886719 7.9171875 12.12886719 7.9171875 12.1328125 6.8125 C12.19695276 4.97910585 12.19695276 4.97910585 11 4 C9.35 4 7.7 4 6 4 Z " fill="#E8E8E8" transform="translate(2,37)"/>
<path d="M0 0 C2.5 2.25 2.5 2.25 4 5 C3.75 7.8125 3.75 7.8125 3 10 C1.35 10.33 -0.3 10.66 -2 11 C-2.66 9.35 -3.32 7.7 -4 6 C-4.66 6 -5.32 6 -6 6 C-5.54567933 10.64056112 -3.98581948 12.27160994 -0.5 15.25 C2.67514022 18.2884117 4.64399825 20.34229618 5.3125 24.75 C5.37075229 28.08203126 4.98835815 29.01926927 3.1875 32 C-0.1375861 35.04007872 -2.43630797 35.35570349 -6.9609375 35.2734375 C-10.3282394 34.82188361 -11.83668648 33.55664325 -14 31 C-14.8125 27.25 -14.8125 27.25 -15 24 C-13.02 23.67 -11.04 23.34 -9 23 C-8.34 24.98 -7.68 26.96 -7 29 C-5.68 28.67 -4.36 28.34 -3 28 C-3.32086605 24.76319335 -3.72089166 23.29330954 -5.99609375 20.90234375 C-6.80175781 20.25394531 -7.60742188 19.60554688 -8.4375 18.9375 C-13.71979139 14.65570682 -13.71979139 14.65570682 -15 11 C-15.14508611 7.40048274 -14.72221121 4.0661213 -12.6875 1.0625 C-8.47595411 -1.58921408 -4.77110663 -1.19277666 0 0 Z " fill="#F6F6F6" transform="translate(269,38)"/>
<path d="M0 0 C2.5 2.25 2.5 2.25 4 5 C3.75 7.8125 3.75 7.8125 3 10 C1.35 10.33 -0.3 10.66 -2 11 C-2.268125 10.195625 -2.53625 9.39125 -2.8125 8.5625 C-3.204375 7.716875 -3.59625 6.87125 -4 6 C-4.99 5.67 -5.98 5.34 -7 5 C-7.11929699 7.7490834 -7.11929699 7.7490834 -6 11 C-4.24782416 12.77532358 -4.24782416 12.77532358 -2.125 14.4375 C1.90496805 17.73540551 3.72749496 19.90997985 5 25 C4.45349831 29.09876264 3.92863345 31.17749609 0.8125 33.9375 C-3.70887057 35.64557333 -7.29112943 35.64557333 -11.8125 33.9375 C-14.77565425 31.31299195 -15.21012643 28.80575447 -16 25 C-13.35261084 23.5393715 -12.10551666 23 -9 23 C-8.7525 23.804375 -8.505 24.60875 -8.25 25.4375 C-7.27761141 28.171081 -7.27761141 28.171081 -4.875 28.8125 C-3.946875 28.9053125 -3.946875 28.9053125 -3 29 C-3.26497827 25.17989654 -3.64108513 23.39630183 -6.25 20.515625 C-7.1575 19.76796875 -8.065 19.0203125 -9 18.25 C-14.87315257 13.3445828 -14.87315257 13.3445828 -15.3125 8.6875 C-14.94887565 4.39673265 -14.0975514 2.92546521 -11 0 C-7.40707133 -1.73451729 -3.76573383 -0.94143346 0 0 Z " fill="#F6F6F6" transform="translate(291,38)"/>
<path d="M0 0 C2.21534856 1.64099893 2.8502966 2.59885591 3.6875 5.25 C3.84217124 7.9412795 3.77752071 10.54937883 3.6875 13.25 C1.7075 13.25 -0.2725 13.25 -2.3125 13.25 C-2.6425 10.28 -2.9725 7.31 -3.3125 4.25 C-4.9625 4.91 -6.6125 5.57 -8.3125 6.25 C-8.3125 13.51 -8.3125 20.77 -8.3125 28.25 C-5.8375 29.24 -5.8375 29.24 -3.3125 30.25 C-2.8175 25.795 -2.8175 25.795 -2.3125 21.25 C-0.3325 21.25 1.6475 21.25 3.6875 21.25 C4.13430851 30.03723404 4.13430851 30.03723404 0.6875 34.25 C-3.4892959 35.6422653 -7.3980234 35.87091133 -11.625 34.5 C-13.74973023 32.92612576 -14.32623473 31.70244955 -15.3125 29.25 C-15.57128906 26.65625 -15.57128906 26.65625 -15.578125 23.75 C-15.58070312 22.698125 -15.58328125 21.64625 -15.5859375 20.5625 C-15.57820313 19.469375 -15.57046875 18.37625 -15.5625 17.25 C-15.57410156 15.6103125 -15.57410156 15.6103125 -15.5859375 13.9375 C-15.58335938 12.885625 -15.58078125 11.83375 -15.578125 10.75 C-15.57586914 9.7909375 -15.57361328 8.831875 -15.57128906 7.84375 C-15.30235665 5.14833684 -14.74448801 3.53090646 -13.3125 1.25 C-9.3874033 -1.65747903 -4.5148468 -1.46427464 0 0 Z " fill="#E7E7E7" transform="translate(55.3125,36.75)"/>
<path d="M0 0 C5.66666667 0 11.33333333 0 17 0 C17 2.31 17 4.62 17 7 C15.2984375 7.2165625 15.2984375 7.2165625 13.5625 7.4375 C10.19222799 7.61171478 10.19222799 7.61171478 9 9 C8.84213692 10.85174706 8.74892644 12.7090911 8.68359375 14.56640625 C8.64169922 15.69111328 8.59980469 16.81582031 8.55664062 17.97460938 C8.51732422 19.15861328 8.47800781 20.34261719 8.4375 21.5625 C8.39431641 22.75037109 8.35113281 23.93824219 8.30664062 25.16210938 C8.20016454 28.10794784 8.09815159 31.0538743 8 34 C5.36 34 2.72 34 0 34 C0 22.78 0 11.56 0 0 Z " fill="#F6F6F6" transform="translate(212,38)"/>
<path d="M0 0 C5.33333333 0 10.66666667 0 16 0 C16 2.31 16 4.62 16 7 C14.865625 7.12375 13.73125 7.2475 12.5625 7.375 C10.7990625 7.684375 10.7990625 7.684375 9 8 C7.71394339 10.57211322 7.78956059 12.56906966 7.68359375 15.4453125 C7.64169922 16.52167969 7.59980469 17.59804688 7.55664062 18.70703125 C7.49766602 20.39892578 7.49766602 20.39892578 7.4375 22.125 C7.39431641 23.26066406 7.35113281 24.39632812 7.30664062 25.56640625 C7.2003396 28.37747768 7.09830595 31.18863945 7 34 C4.69 34 2.38 34 0 34 C0 22.78 0 11.56 0 0 Z " fill="#F5F5F5" transform="translate(324,38)"/>
<path d="M0 0 C5.94 0 11.88 0 18 0 C18 1.32 18 2.64 18 4 C16.02 4 14.04 4 12 4 C12 13.9 12 23.8 12 34 C10.02 34 8.04 34 6 34 C6 24.1 6 14.2 6 4 C4.02 4 2.04 4 0 4 C0 2.68 0 1.36 0 0 Z " fill="#E8E8E8" transform="translate(21,37)"/>
</svg>
