<svg xmlns="http://www.w3.org/2000/svg" version="1.1" xmlns:xlink="http://www.w3.org/1999/xlink" xmlns:svgjs="http://svgjs.dev/svgjs" width="2000" height="1247" viewBox="0 0 2000 1247"><g transform="matrix(1,0,0,1,-1.2121212121212466,158.6975826278982)"><svg viewBox="0 0 396 247" data-background-color="#ffffff" preserveAspectRatio="xMidYMid meet" height="1500" width="2000" xmlns="http://www.w3.org/2000/svg" xmlns:xlink="http://www.w3.org/1999/xlink"><g id="tight-bounds" transform="matrix(1,0,0,1,0.2400000000000091,-0.09999999999999432)"><svg viewBox="0 0 395.52 247.2" height="247.2" width="395.52"><g><svg></svg></g><g><svg viewBox="0 0 395.52 247.2" height="247.2" width="395.52"><g transform="matrix(1,0,0,1,75.54432,92.43919663860537)"><svg viewBox="0 0 244.43135999999998 62.32160672278925" height="62.32160672278925" width="244.43135999999998"><g><svg viewBox="0 0 244.43135999999998 62.32160672278925" height="62.32160672278925" width="244.43135999999998"><g><svg viewBox="0 0 244.43135999999998 62.32160672278925" height="62.32160672278925" width="244.43135999999998"><g><svg viewBox="0 0 244.43135999999998 62.32160672278925" height="62.32160672278925" width="244.43135999999998"><g id="textblocktransform"><svg viewBox="0 0 244.43135999999998 62.32160672278925" height="62.32160672278925" width="244.43135999999998" id="textblock"><g><svg viewBox="0 0 244.43135999999998 33.613296716417906" height="33.613296716417906" width="244.43135999999998"><g transform="matrix(1,0,0,1,0,0)"><svg width="244.43135999999998" viewBox="0.75 -35.55 345.02 47.449999999999996" height="33.613296716417906" data-palette-color="#39cccc"><path d="M16.4-17.7L16.4-17.7 13.75-17.7 13.75-0.95 17-0.95 17 0 0.75 0 0.75-0.95 4-0.95 4-34.05 0.75-34.05 0.75-35 15.85-35Q22.35-35 25.08-34.33 27.8-33.65 28.9-32.7L28.9-32.7Q31.3-30.75 31.3-26.5 31.3-22.25 29.2-20.43 27.1-18.6 22.8-18.25L22.8-18.25 22.8-18.1Q26.85-17.55 28.45-15.7 30.05-13.85 30.05-9.5L30.05-9.5 30.05-6.85Q30.05-4.25 30.33-3.35 30.6-2.45 31.5-2.45 32.4-2.45 32.93-3.28 33.45-4.1 33.9-6.75L33.9-6.75 34.75-6.65Q34.2-2.4 32.83-0.95 31.45 0.5 27.35 0.5 23.25 0.5 21.53-1.43 19.8-3.35 19.8-8.65L19.8-8.65 19.8-12.3Q19.8-15.1 19.07-16.4 18.35-17.7 16.4-17.7ZM15.4-34.05L13.75-34.05 13.75-18.65 15.35-18.65Q18.2-18.65 19.58-20.4 20.95-22.15 20.95-26.1L20.95-26.1 20.95-27.55Q20.95-31.5 19.63-32.77 18.3-34.05 15.4-34.05L15.4-34.05ZM35.6-35L65.1-35 65.6-22.45 64.65-22.45Q62.45-29.1 60.75-31.53 59.05-33.95 55.85-33.95L55.85-33.95 55.25-33.95 55.25-1.05 59.5-1.05 59.5 0 41.25 0 41.25-1.05 45.5-1.05 45.5-33.95 44.85-33.95Q41.65-33.95 39.9-31.43 38.15-28.9 36.05-22.45L36.05-22.45 35.1-22.45 35.6-35ZM85.95-34.55L85.95-34.55Q78.2-34.55 78.2-19.6L78.2-19.6 78.2-15.65Q78.2-8.55 80.25-4.53 82.3-0.5 86.3-0.5L86.3-0.5Q91.8-0.5 96.4-11.2L96.4-11.2 97.3-11.2 96.95-0.05 96.4-0.05Q96.1-0.6 95.85-0.83 95.6-1.05 95.12-1.05 94.65-1.05 91.5-0.28 88.35 0.5 85.1 0.5L85.1 0.5Q76.95 0.5 72.47-3.9 68-8.3 68-17.13 68-25.95 72.67-30.75 77.35-35.55 85.25-35.55L85.25-35.55Q88.3-35.55 91.22-34.77 94.15-34 94.65-34 95.15-34 95.4-34.23 95.65-34.45 95.95-35L95.95-35 96.5-35 96.9-24.15 96-24.15Q93.75-29.2 91.37-31.88 89-34.55 85.95-34.55ZM116.59-9.85L116.59-9.85 116.59-14.1Q116.59-18.95 116.07-21.18 115.54-23.4 113.64-23.4L113.64-23.4Q112.54-23.4 111.87-22.78 111.19-22.15 110.89-20.7L110.89-20.7Q110.44-18.45 110.44-13.85L110.44-13.85 110.44-9.95Q110.44-4.5 110.77-3.4 111.09-2.3 111.44-1.6L111.44-1.6Q111.99-0.4 113.59-0.4L113.59-0.4Q115.54-0.4 116.14-2.65L116.14-2.65Q116.59-4.25 116.59-9.85ZM113.49 0.5Q107.24 0.5 104.04-2.7 100.84-5.9 100.84-11.88 100.84-17.85 104.27-21.08 107.69-24.3 113.89-24.3 120.09-24.3 123.14-21.33 126.19-18.35 126.19-12.25L126.19-12.25Q126.19 0.5 113.49 0.5L113.49 0.5ZM127.59-22.9L127.59-23.8 139.64-23.8 139.64-19.2Q141.29-24.3 146.92-24.3 152.54-24.3 153.74-18.9L153.74-18.9Q155.49-24.3 161.09-24.3L161.09-24.3Q168.44-24.3 168.44-15.95L168.44-15.95 168.44-0.9 171.24-0.9 171.24 0 157.39 0 157.39-0.9 159.14-0.9 159.14-17.15Q159.14-20.95 158.49-21.6L158.49-21.6Q158.19-21.9 157.69-21.9L157.69-21.9Q156.24-21.9 155.14-19.95 154.04-18 154.04-15L154.04-15 154.04-0.9 155.84-0.9 155.84 0 142.99 0 142.99-0.9 144.74-0.9 144.74-17.15Q144.74-20.95 144.09-21.6L144.09-21.6Q143.79-21.9 143.29-21.9L143.29-21.9Q141.89-21.9 140.77-19.78 139.64-17.65 139.64-14.7L139.64-14.7 139.64-0.9 141.44-0.9 141.44 0 127.59 0 127.59-0.9 130.34-0.9 130.34-22.9 127.59-22.9ZM190.24-13.45Q190.24-18.6 189.74-20.38 189.24-22.15 187.79-22.15 186.34-22.15 185.19-20.28 184.04-18.4 184.04-15.25L184.04-15.25 184.04-6.1Q184.04-3.95 184.89-2.45 185.74-0.95 187.39-0.95 189.04-0.95 189.64-3.15 190.24-5.35 190.24-10.85L190.24-10.85 190.24-13.45ZM172.09-23.8L183.94-23.8 183.94-19.85Q185.89-24.3 190.84-24.3L190.84-24.3Q195.14-24.3 197.51-21.2 199.89-18.1 199.89-11.8 199.89-5.5 197.31-2.5 194.74 0.5 189.59 0.5L189.59 0.5Q187.19 0.5 185.99-0.1 184.79-0.7 184.04-1.95L184.04-1.95 184.04 11 190.49 11 190.49 11.9 171.99 11.9 171.99 11 174.74 11 174.74-22.9 172.09-22.9 172.09-23.8ZM218.09-22.4L218.09-22.4Q216.24-22.4 214.84-20 213.44-17.6 213.44-14.3L213.44-14.3 213.44-0.9 216.99-0.9 216.99 0 201.39 0 201.39-0.9 204.14-0.9 204.14-22.9 201.39-22.9 201.39-23.8 213.44-23.8 213.44-19Q214.09-21.55 215.94-22.93 217.79-24.3 220.14-24.3 222.49-24.3 223.96-22.98 225.44-21.65 225.44-19.23 225.44-16.8 224.34-15.5 223.24-14.2 220.96-14.2 218.69-14.2 217.61-15.7 216.54-17.2 217.34-19.85L217.34-19.85 219.14-19.85Q220.39-22.4 218.09-22.4ZM239.03 0.5Q232.58 0.5 229.36-2.83 226.13-6.15 226.13-12.08 226.13-18 229.76-21.15 233.38-24.3 238.98-24.3L238.98-24.3Q250.33-24.3 249.88-12.9L249.88-12.9 235.78-12.9 235.78-10.95Q235.78-6.05 237.03-3.55 238.28-1.05 241.38-1.05L241.38-1.05Q247.18-1.05 248.98-7.25L248.98-7.25 249.88-7.1Q248.93-3.5 246.46-1.5 243.98 0.5 239.03 0.5L239.03 0.5ZM235.83-16.35L235.83-13.9 240.98-13.9 240.98-16.35Q240.98-20.4 240.51-21.88 240.03-23.35 238.61-23.35 237.18-23.35 236.51-21.78 235.83-20.2 235.83-16.35L235.83-16.35ZM252.93 0.5L252.33 0.5 252.33-8.45 252.93-8.45Q254.23-4.1 256.43-2.35 258.63-0.6 261.93-0.6L261.93-0.6Q267.03-0.6 267.03-3.85L267.03-3.85Q267.03-5.25 265.78-5.95L265.78-5.95Q263.83-7.05 260.78-7.65L260.78-7.65Q257.38-8.55 255.08-10.05L255.08-10.05Q252.33-11.85 252.33-15.75 252.33-19.65 254.73-21.98 257.13-24.3 261.13-24.3L261.13-24.3Q263.58-24.3 266.18-23.15L266.18-23.15Q267.13-22.75 267.63-22.75 268.13-22.75 268.48-23.1 268.83-23.45 269.33-24.4L269.33-24.4 269.88-24.4 269.88-16.75 269.28-16.75Q266.73-23.25 261.38-23.25L261.38-23.25Q259.03-23.25 257.88-22.43 256.73-21.6 256.73-20.35L256.73-20.35Q256.73-19.6 257.08-19.18 257.43-18.75 257.63-18.55 257.83-18.35 258.28-18.13 258.73-17.9 259.03-17.78 259.33-17.65 259.96-17.45 260.58-17.25 260.88-17.2L260.88-17.2Q264.28-16.35 265.78-15.73 267.28-15.1 268.63-14.2L268.63-14.2Q271.38-12.3 271.38-8.08 271.38-3.85 268.88-1.68 266.38 0.5 262.03 0.5L262.03 0.5Q258.93 0.5 256.03-0.95L256.03-0.95Q255.43-1.35 255.08-1.35L255.08-1.35Q253.98-1.35 252.93 0.5L252.93 0.5ZM274.63 0.5L274.03 0.5 274.03-8.45 274.63-8.45Q275.93-4.1 278.13-2.35 280.33-0.6 283.63-0.6L283.63-0.6Q288.73-0.6 288.73-3.85L288.73-3.85Q288.73-5.25 287.48-5.95L287.48-5.95Q285.53-7.05 282.48-7.65L282.48-7.65Q279.08-8.55 276.78-10.05L276.78-10.05Q274.03-11.85 274.03-15.75 274.03-19.65 276.43-21.98 278.83-24.3 282.83-24.3L282.83-24.3Q285.28-24.3 287.88-23.15L287.88-23.15Q288.83-22.75 289.33-22.75 289.83-22.75 290.18-23.1 290.53-23.45 291.03-24.4L291.03-24.4 291.58-24.4 291.58-16.75 290.98-16.75Q288.43-23.25 283.08-23.25L283.08-23.25Q280.73-23.25 279.58-22.43 278.43-21.6 278.43-20.35L278.43-20.35Q278.43-19.6 278.78-19.18 279.13-18.75 279.33-18.55 279.53-18.35 279.98-18.13 280.43-17.9 280.73-17.78 281.03-17.65 281.65-17.45 282.28-17.25 282.58-17.2L282.58-17.2Q285.98-16.35 287.48-15.73 288.98-15.1 290.33-14.2L290.33-14.2Q293.08-12.3 293.08-8.08 293.08-3.85 290.58-1.68 288.08 0.5 283.73 0.5L283.73 0.5Q280.63 0.5 277.73-0.95L277.73-0.95Q277.13-1.35 276.78-1.35L276.78-1.35Q275.68-1.35 274.63 0.5L274.63 0.5ZM310.73-9.85L310.73-9.85 310.73-14.1Q310.73-18.95 310.2-21.18 309.68-23.4 307.78-23.4L307.78-23.4Q306.68-23.4 306-22.78 305.33-22.15 305.03-20.7L305.03-20.7Q304.58-18.45 304.58-13.85L304.58-13.85 304.58-9.95Q304.58-4.5 304.9-3.4 305.23-2.3 305.58-1.6L305.58-1.6Q306.13-0.4 307.73-0.4L307.73-0.4Q309.68-0.4 310.28-2.65L310.28-2.65Q310.73-4.25 310.73-9.85ZM307.63 0.5Q301.38 0.5 298.18-2.7 294.98-5.9 294.98-11.88 294.98-17.85 298.4-21.08 301.83-24.3 308.03-24.3 314.23-24.3 317.28-21.33 320.33-18.35 320.33-12.25L320.33-12.25Q320.33 0.5 307.63 0.5L307.63 0.5ZM338.42-22.4L338.42-22.4Q336.57-22.4 335.17-20 333.77-17.6 333.77-14.3L333.77-14.3 333.77-0.9 337.32-0.9 337.32 0 321.72 0 321.72-0.9 324.47-0.9 324.47-22.9 321.72-22.9 321.72-23.8 333.77-23.8 333.77-19Q334.42-21.55 336.27-22.93 338.12-24.3 340.47-24.3 342.82-24.3 344.3-22.98 345.77-21.65 345.77-19.23 345.77-16.8 344.67-15.5 343.57-14.2 341.3-14.2 339.02-14.2 337.95-15.7 336.87-17.2 337.67-19.85L337.67-19.85 339.47-19.85Q340.72-22.4 338.42-22.4Z" opacity="1" transform="matrix(1,0,0,1,0,0)" fill="#39cccc" class="wordmark-text-0" data-fill-palette-color="primary" id="text-0"></path></svg></g></svg></g><g transform="matrix(1,0,0,1,0,41.54858935204298)"><svg viewBox="0 0 244.43135999999998 20.773017370746267" height="20.773017370746267" width="244.43135999999998"><g transform="matrix(1,0,0,1,0,0)"><svg width="244.43135999999998" viewBox="0.49 -35.5 423.44 35.99" height="20.773017370746267" data-palette-color="#39cccc"><path d="M19.46 0L17.14-8.15 6.05-8.15 3.76 0 0.49 0 10.74-35.01 12.4-35.01 22.71 0 19.46 0ZM11.5-27.29L6.91-11.16 16.31-11.16 11.69-27.29 11.6-28.59 11.5-27.29ZM84.3-32.01L67.74-32.01 67.74-18.99 81.15-18.99 81.15-15.99 67.74-15.99 67.74 0 64.59 0 64.59-35.01 84.3-35.01 84.3-32.01ZM105.5-31.01L102.01-31.01 102.01-35.01 105.5-35.01 105.5-31.01ZM105.25 0L102.25 0 102.25-25 105.25-25 105.25 0ZM135.56-22.14L132.56-22.14Q131.66-22.14 130.86-21.8 130.07-21.46 129.48-20.87 128.9-20.29 128.55-19.49 128.21-18.7 128.21-17.8L128.21-17.8 128.21 0 125.21 0 125.21-25 126.21-25 127.85-22.46Q128.87-23.85 130.42-24.67 131.97-25.49 133.8-25.49L133.8-25.49 135.56-25.49 135.56-22.14ZM169.21-6.86L169.21-6.86Q169.21-5.35 168.64-4 168.07-2.66 167.07-1.66 166.06-0.66 164.72-0.09 163.38 0.49 161.87 0.49L161.87 0.49 159.86 0.49Q158.35 0.49 157.01-0.09 155.66-0.66 154.66-1.66 153.66-2.66 153.09-4 152.51-5.35 152.51-6.86L152.51-6.86 152.51-18.14Q152.51-19.65 153.09-21 153.66-22.34 154.66-23.34 155.66-24.34 157.01-24.91 158.35-25.49 159.86-25.49L159.86-25.49 161.87-25.49Q163.38-25.49 164.72-24.91 166.06-24.34 167.07-23.34 168.07-22.34 168.64-21 169.21-19.65 169.21-18.14L169.21-18.14 169.21-12.26 155.52-12.26 155.52-6.69Q155.52-5.79 155.86-4.99 156.2-4.2 156.79-3.61 157.37-3.03 158.17-2.69 158.96-2.34 159.86-2.34L159.86-2.34 161.87-2.34Q162.77-2.34 163.56-2.69 164.36-3.03 164.94-3.61 165.53-4.2 165.87-4.99 166.21-5.79 166.21-6.69L166.21-6.69 166.21-8.35 169.21-7.86 169.21-6.86ZM166.21-14.6L166.21-18.31Q166.21-19.21 165.87-20.01 165.53-20.8 164.94-21.39 164.36-21.97 163.56-22.31 162.77-22.66 161.87-22.66L161.87-22.66 159.86-22.66Q158.96-22.66 158.17-22.31 157.37-21.97 156.79-21.39 156.2-20.8 155.86-20.01 155.52-19.21 155.52-18.31L155.52-18.31 155.52-14.6 166.21-14.6ZM232.81-9.16L232.81-8.11Q232.81-6.32 232.09-4.76 231.37-3.2 230.16-2.03 228.95-0.85 227.35-0.18 225.75 0.49 223.97 0.49L223.97 0.49 221.46 0.49Q219.67 0.49 218.07-0.18 216.47-0.85 215.27-2.03 214.06-3.2 213.34-4.76 212.62-6.32 212.62-8.11L212.62-8.11 212.62-9.5 215.77-10.01 215.77-8.11Q215.77-6.93 216.24-5.92 216.72-4.91 217.52-4.14 218.33-3.37 219.39-2.93 220.45-2.49 221.63-2.49L221.63-2.49 223.82-2.49Q225-2.49 226.05-2.93 227.1-3.37 227.9-4.14 228.71-4.91 229.18-5.92 229.66-6.93 229.66-8.11L229.66-8.11 229.66-9.16Q229.66-10.96 228.95-12.16 228.24-13.35 227.07-14.2 225.9-15.04 224.42-15.63 222.94-16.21 221.38-16.8 219.82-17.38 218.34-18.09 216.87-18.8 215.69-19.86 214.52-20.92 213.81-22.46 213.11-24 213.11-26.25L213.11-26.25 213.11-26.9Q213.11-28.69 213.78-30.25 214.45-31.81 215.62-32.98 216.79-34.16 218.37-34.83 219.94-35.5 221.72-35.5L221.72-35.5 223.97-35.5Q225.75-35.5 227.31-34.83 228.88-34.16 230.05-32.98 231.22-31.81 231.89-30.25 232.56-28.69 232.56-26.9L232.56-26.9 232.56-26 229.41-25.49 229.41-26.9Q229.41-28.08 228.97-29.09 228.54-30.1 227.78-30.86 227.02-31.62 226.01-32.06 225-32.5 223.82-32.5L223.82-32.5 221.87-32.5Q220.7-32.5 219.69-32.06 218.67-31.62 217.9-30.86 217.13-30.1 216.69-29.09 216.26-28.08 216.26-26.9L216.26-26.9 216.26-26.25Q216.26-24.56 216.96-23.41 217.67-22.27 218.84-21.45 220.01-20.63 221.49-20.03 222.97-19.43 224.53-18.81 226.09-18.19 227.57-17.44 229.05-16.7 230.22-15.61 231.39-14.53 232.1-12.96 232.81-11.4 232.81-9.16L232.81-9.16ZM268.22-6.86L268.22-6.86Q268.22-5.35 267.64-4 267.07-2.66 266.07-1.66 265.07-0.66 263.73-0.09 262.38 0.49 260.87 0.49L260.87 0.49 258.87 0.49Q257.35 0.49 256.01-0.09 254.67-0.66 253.67-1.66 252.67-2.66 252.09-4 251.52-5.35 251.52-6.86L251.52-6.86 251.52-18.14Q251.52-19.65 252.09-21 252.67-22.34 253.67-23.34 254.67-24.34 256.01-24.91 257.35-25.49 258.87-25.49L258.87-25.49 260.87-25.49Q262.38-25.49 263.73-24.91 265.07-24.34 266.07-23.34 267.07-22.34 267.64-21 268.22-19.65 268.22-18.14L268.22-18.14 268.22-12.26 254.52-12.26 254.52-6.69Q254.52-5.79 254.86-4.99 255.21-4.2 255.79-3.61 256.38-3.03 257.17-2.69 257.96-2.34 258.87-2.34L258.87-2.34 260.87-2.34Q261.77-2.34 262.57-2.69 263.36-3.03 263.95-3.61 264.53-4.2 264.87-4.99 265.22-5.79 265.22-6.69L265.22-6.69 265.22-8.35 268.22-7.86 268.22-6.86ZM265.22-14.6L265.22-18.31Q265.22-19.21 264.87-20.01 264.53-20.8 263.95-21.39 263.36-21.97 262.57-22.31 261.77-22.66 260.87-22.66L260.87-22.66 258.87-22.66Q257.96-22.66 257.17-22.31 256.38-21.97 255.79-21.39 255.21-20.8 254.86-20.01 254.52-19.21 254.52-18.31L254.52-18.31 254.52-14.6 265.22-14.6ZM297.52-22.14L294.52-22.14Q293.62-22.14 292.83-21.8 292.03-21.46 291.45-20.87 290.86-20.29 290.52-19.49 290.18-18.7 290.18-17.8L290.18-17.8 290.18 0 287.17 0 287.17-25 288.17-25 289.81-22.46Q290.84-23.85 292.39-24.67 293.94-25.49 295.77-25.49L295.77-25.49 297.52-25.49 297.52-22.14ZM331.18-25L322.31 0 320.83 0 311.96-25 314.97-25 321.48-6.05 321.58-4.76 321.68-6.05 328.17-25 331.18-25ZM351.87-31.01L348.37-31.01 348.37-35.01 351.87-35.01 351.87-31.01ZM351.62 0L348.62 0 348.62-25 351.62-25 351.62 0ZM388.28-6.86L388.28-6.86Q388.28-5.35 387.7-4 387.13-2.66 386.13-1.66 385.13-0.66 383.78-0.09 382.44 0.49 380.93 0.49L380.93 0.49 378.93 0.49Q377.41 0.49 376.07-0.09 374.73-0.66 373.73-1.66 372.73-2.66 372.15-4 371.58-5.35 371.58-6.86L371.58-6.86 371.58-18.14Q371.58-19.65 372.15-21 372.73-22.34 373.73-23.34 374.73-24.34 376.07-24.91 377.41-25.49 378.93-25.49L378.93-25.49 380.93-25.49Q382.44-25.49 383.78-24.91 385.13-24.34 386.13-23.34 387.13-22.34 387.7-21 388.28-19.65 388.28-18.14L388.28-18.14 388.28-17.14 385.27-16.65 385.27-18.31Q385.27-19.21 384.93-20.01 384.59-20.8 384-21.39 383.42-21.97 382.63-22.31 381.83-22.66 380.93-22.66L380.93-22.66 378.93-22.66Q378.02-22.66 377.23-22.31 376.44-21.97 375.85-21.39 375.26-20.8 374.92-20.01 374.58-19.21 374.58-18.31L374.58-18.31 374.58-6.69Q374.58-5.79 374.92-4.99 375.26-4.2 375.85-3.61 376.44-3.03 377.23-2.69 378.02-2.34 378.93-2.34L378.93-2.34 380.93-2.34Q381.83-2.34 382.63-2.69 383.42-3.03 384-3.61 384.59-4.2 384.93-4.99 385.27-5.79 385.27-6.69L385.27-6.69 385.27-8.35 388.28-7.86 388.28-6.86ZM423.93-6.86L423.93-6.86Q423.93-5.35 423.36-4 422.78-2.66 421.78-1.66 420.78-0.66 419.44-0.09 418.1 0.49 416.58 0.49L416.58 0.49 414.58 0.49Q413.07 0.49 411.72-0.09 410.38-0.66 409.38-1.66 408.38-2.66 407.81-4 407.23-5.35 407.23-6.86L407.23-6.86 407.23-18.14Q407.23-19.65 407.81-21 408.38-22.34 409.38-23.34 410.38-24.34 411.72-24.91 413.07-25.49 414.58-25.49L414.58-25.49 416.58-25.49Q418.1-25.49 419.44-24.91 420.78-24.34 421.78-23.34 422.78-22.34 423.36-21 423.93-19.65 423.93-18.14L423.93-18.14 423.93-12.26 410.23-12.26 410.23-6.69Q410.23-5.79 410.58-4.99 410.92-4.2 411.5-3.61 412.09-3.03 412.88-2.69 413.68-2.34 414.58-2.34L414.58-2.34 416.58-2.34Q417.49-2.34 418.28-2.69 419.07-3.03 419.66-3.61 420.24-4.2 420.59-4.99 420.93-5.79 420.93-6.69L420.93-6.69 420.93-8.35 423.93-7.86 423.93-6.86ZM420.93-14.6L420.93-18.31Q420.93-19.21 420.59-20.01 420.24-20.8 419.66-21.39 419.07-21.97 418.28-22.31 417.49-22.66 416.58-22.66L416.58-22.66 414.58-22.66Q413.68-22.66 412.88-22.31 412.09-21.97 411.5-21.39 410.92-20.8 410.58-20.01 410.23-19.21 410.23-18.31L410.23-18.31 410.23-14.6 420.93-14.6Z" opacity="1" transform="matrix(1,0,0,1,0,0)" fill="#39cccc" class="slogan-text-1" data-fill-palette-color="secondary" id="text-1"></path></svg></g></svg></g></svg></g></svg></g><g></g></svg></g></svg></g></svg></g><g><path d="M81.966 84.504A122.216 122.216 0 0 1 313.554 84.504L310.522 84.504A119.184 119.184 0 0 0 84.998 84.504L81.966 84.504M81.966 162.696A122.216 122.216 0 0 0 313.554 162.696L310.522 162.696A119.184 119.184 0 0 1 84.998 162.696L81.966 162.696" fill="#39cccc" stroke="transparent" data-fill-palette-color="tertiary"></path></g></svg></g><defs></defs></svg><rect width="395.52" height="247.2" fill="none" stroke="none" visibility="hidden"></rect></g></svg></g></svg>