<?xml version="1.0" encoding="UTF-8"?>
<!DOCTYPE svg PUBLIC "-//W3C//DTD SVG 1.1//EN" "http://www.w3.org/Graphics/SVG/1.1/DTD/svg11.dtd">
<svg xmlns="http://www.w3.org/2000/svg" version="1.1" width="64px" height="64px" style="shape-rendering:geometricPrecision; text-rendering:geometricPrecision; image-rendering:optimizeQuality; fill-rule:evenodd; clip-rule:evenodd" xmlns:xlink="http://www.w3.org/1999/xlink">
<g><path style="opacity:0.996" fill="#9b36c2" d="M 28.5,-0.5 C 30.5,-0.5 32.5,-0.5 34.5,-0.5C 35.3414,1.3792 35.6747,3.3792 35.5,5.5C 35.5,6.5 35.5,7.5 35.5,8.5C 35.5,10.1667 35.5,11.8333 35.5,13.5C 32.8333,13.5 30.1667,13.5 27.5,13.5C 27.5,11.8333 27.5,10.1667 27.5,8.5C 27.5,7.5 27.5,6.5 27.5,5.5C 27.3253,3.3792 27.6586,1.3792 28.5,-0.5 Z"/></g>
<g><path style="opacity:1" fill="#51c5ee" d="M 30.5,1.5 C 33.8606,2.20318 34.1939,3.53651 31.5,5.5C 29.3576,4.56289 29.0243,3.22955 30.5,1.5 Z"/></g>
<g><path style="opacity:0.974" fill="#44c6e8" d="M 27.5,5.5 C 27.5,6.5 27.5,7.5 27.5,8.5C 22.6407,9.98811 17.6407,10.6548 12.5,10.5C 12.5,8.16667 12.5,5.83333 12.5,3.5C 17.6407,3.34523 22.6407,4.01189 27.5,5.5 Z"/></g>
<g><path style="opacity:1" fill="#0089a8" d="M 35.5,5.5 C 36.8333,5.5 38.1667,5.5 39.5,5.5C 39.5,6.5 39.5,7.5 39.5,8.5C 38.1667,8.5 36.8333,8.5 35.5,8.5C 35.5,7.5 35.5,6.5 35.5,5.5 Z"/></g>
<g><path style="opacity:0.993" fill="#fccd30" d="M 27.5,13.5 C 30.1667,13.5 32.8333,13.5 35.5,13.5C 37.9032,13.393 39.7365,14.393 41,16.5C 41.4998,26.1609 41.6665,35.8276 41.5,45.5C 34.8333,45.5 28.1667,45.5 21.5,45.5C 21.3335,35.8276 21.5002,26.1609 22,16.5C 23.2635,14.393 25.0968,13.393 27.5,13.5 Z"/></g>
<g><path style="opacity:1" fill="#fffdf7" d="M 23.5,19.5 C 24.5,19.5 25.5,19.5 26.5,19.5C 26.5,22.8333 26.5,26.1667 26.5,29.5C 25.5,29.5 24.5,29.5 23.5,29.5C 23.5,26.1667 23.5,22.8333 23.5,19.5 Z"/></g>
<g><path style="opacity:1" fill="#8f32ac" d="M 21.5,45.5 C 28.1667,45.5 34.8333,45.5 41.5,45.5C 41.7683,48.1194 41.435,50.6194 40.5,53C 34.5,53.6667 28.5,53.6667 22.5,53C 21.565,50.6194 21.2317,48.1194 21.5,45.5 Z"/></g>
<g><path style="opacity:0.251" fill="#000000" d="M 44.5,63.5 C 35.8333,63.5 27.1667,63.5 18.5,63.5C 16.8113,62.6963 15.1446,61.6963 13.5,60.5C 14.0253,59.8076 14.6919,59.3076 15.5,59C 26.1667,57 36.8333,57 47.5,59C 48.3081,59.3076 48.9747,59.8076 49.5,60.5C 47.8554,61.6963 46.1887,62.6963 44.5,63.5 Z"/></g>
</svg>
